<svg width="18" height="18" viewBox="0 0 18 18" fill="none" xmlns="http://www.w3.org/2000/svg">
<path fill-rule="evenodd" clip-rule="evenodd" d="M16.875 9.00001C16.875 8.85082 16.8158 8.70775 16.7103 8.60226C16.6048 8.49677 16.4617 8.43751 16.3125 8.43751H3.0454L6.58578 4.89826C6.63808 4.84596 6.67956 4.78387 6.70787 4.71554C6.73617 4.64721 6.75074 4.57397 6.75074 4.50001C6.75074 4.42605 6.73617 4.35281 6.70787 4.28448C6.67956 4.21615 6.63808 4.15406 6.58578 4.10176C6.53348 4.04946 6.47139 4.00797 6.40306 3.97967C6.33473 3.95137 6.26149 3.9368 6.18753 3.9368C6.11357 3.9368 6.04033 3.95137 5.972 3.97967C5.90367 4.00797 5.84158 4.04946 5.78928 4.10176L1.28928 8.60176C1.2369 8.65401 1.19533 8.71608 1.16698 8.78442C1.13862 8.85276 1.12402 8.92602 1.12402 9.00001C1.12402 9.074 1.13862 9.14726 1.16698 9.2156C1.19533 9.28393 1.2369 9.34601 1.28928 9.39826L5.78928 13.8983C5.84158 13.9506 5.90367 13.992 5.972 14.0203C6.04033 14.0487 6.11357 14.0632 6.18753 14.0632C6.26149 14.0632 6.33473 14.0487 6.40306 14.0203C6.47139 13.992 6.53348 13.9506 6.58578 13.8983C6.63808 13.846 6.67956 13.7839 6.70787 13.7155C6.73617 13.6472 6.75074 13.574 6.75074 13.5C6.75074 13.426 6.73617 13.3528 6.70787 13.2845C6.67956 13.2161 6.63808 13.1541 6.58578 13.1018L3.0454 9.56251H16.3125C16.4617 9.56251 16.6048 9.50325 16.7103 9.39776C16.8158 9.29227 16.875 9.14919 16.875 9.00001Z" fill="white"/>
</svg>
