<svg width="100" height="65" viewBox="0 0 100 65" fill="none" xmlns="http://www.w3.org/2000/svg">
<path fill-rule="evenodd" clip-rule="evenodd" d="M0.241211 2.875C0.241211 1.79632 1.11565 0.921875 2.19434 0.921875H78.727C79.8057 0.921875 80.6801 1.79632 80.6801 2.875V9.2422C90.4015 6.20992 100.776 14.1087 99.954 24.555C99.6415 29.4002 97.3284 33.9989 93.6234 37.1415C89.2955 40.8179 81.0988 44.3934 74.5386 46.8848C67.5969 57.7265 55.4465 64.9125 41.6176 64.9125H39.3037C17.7301 64.9125 0.241211 47.4236 0.241211 25.85V2.875ZM80.6801 25.85C80.6801 29.1037 80.2823 32.2645 79.5327 35.2864L79.7117 35.2032C83.5236 33.4275 86.387 31.7565 87.9334 30.443L87.9381 30.439C89.8261 28.8375 91.0242 26.453 91.1832 23.9892L91.1872 23.9272L91.192 23.8652C91.5326 19.5395 86.7691 16.0818 82.6813 17.8625L82.6681 17.8683L82.6549 17.874C82.5212 17.9317 82.3298 18.0289 81.7082 18.3682L81.7064 18.3691C81.4834 18.4909 81.1974 18.6471 80.8964 18.8057L80.6801 18.9197V25.85ZM58.908 33.313C56.2212 37.5394 49.7737 42.824 45.3058 46.1995C44.0609 47.1403 40.5734 49.5908 40.5734 49.5908C40.5734 49.5908 37.0859 47.1403 35.841 46.1995C31.3731 42.824 24.9256 37.5394 22.2388 33.313C20.2283 30.1555 19.5742 26.2436 20.4487 22.6063C22.317 14.3211 32.6626 10.9355 39.1069 16.4878C39.4694 16.798 39.8035 17.1419 40.1464 17.495C40.2863 17.6391 40.4278 17.7848 40.5734 17.9303C40.7189 17.7848 40.8604 17.6391 41.0003 17.495C41.3433 17.1419 41.6774 16.798 42.0398 16.4878C48.4841 10.9355 58.8298 14.3211 60.6981 22.6063C61.5725 26.2436 60.9184 30.1555 58.908 33.313Z" fill="url(#paint0_linear_20_1178)"/>
<defs>
<linearGradient id="paint0_linear_20_1178" x1="0.241211" y1="64.9125" x2="58.4036" y2="-25.7602" gradientUnits="userSpaceOnUse">
<stop stop-color="#B5002C"/>
<stop offset="1" stop-color="#F3003B"/>
</linearGradient>
</defs>
</svg>
