<svg width="35" height="35" viewBox="0 0 35 35" fill="none" xmlns="http://www.w3.org/2000/svg">
<g clip-path="url(#clip0_20_1086)">
<g filter="url(#filter0_d_20_1086)">
<path fill-rule="evenodd" clip-rule="evenodd" d="M0 7.68359C0 7.30606 0.306055 7 0.683594 7H27.47C27.8476 7 28.1536 7.30606 28.1536 7.68359V9.91211C31.5561 8.85081 35.1873 11.6154 34.8995 15.2716C34.7901 16.9674 33.9805 18.5769 32.6838 19.6769C31.169 20.9636 28.3001 22.215 26.0041 23.087C23.5745 26.8816 19.3218 29.3967 14.4817 29.3967H13.6719C6.12109 29.3967 0 23.2756 0 15.7248V7.68359ZM28.1536 15.7248C28.1536 16.8636 28.0144 17.9699 27.752 19.0276L27.8147 18.9985C29.1488 18.377 30.151 17.7921 30.6923 17.3324L30.6939 17.331C31.3547 16.7705 31.7741 15.9359 31.8297 15.0736L31.8311 15.0519L31.8328 15.0302C31.952 13.5162 30.2848 12.306 28.854 12.9292L28.8494 12.9312L28.8448 12.9332C28.798 12.9534 28.731 12.9874 28.5135 13.1062L28.5128 13.1065C28.4348 13.1492 28.3347 13.2038 28.2293 13.2593L28.1536 13.2992V15.7248ZM20.5334 18.3369C19.593 19.8161 17.3364 21.6657 15.7726 22.8472C15.3369 23.1764 14.1163 24.0341 14.1163 24.0341C14.1163 24.0341 12.8956 23.1764 12.4599 22.8472C10.8962 21.6657 8.63952 19.8161 7.69914 18.3369C6.99547 17.2318 6.76655 15.8626 7.07261 14.5896C7.72651 11.6897 11.3475 10.5048 13.603 12.4481C13.7299 12.5567 13.8468 12.677 13.9668 12.8006C14.0158 12.851 14.0653 12.902 14.1163 12.9529C14.1672 12.902 14.2167 12.851 14.2657 12.8006C14.3857 12.677 14.5027 12.5567 14.6295 12.4481C16.885 10.5048 20.506 11.6897 21.1599 14.5896C21.466 15.8626 21.237 17.2318 20.5334 18.3369Z" fill="#F3003B"/>
</g>
</g>
<defs>
<filter id="filter0_d_20_1086" x="-4" y="7" width="42.9155" height="30.3967" filterUnits="userSpaceOnUse" color-interpolation-filters="sRGB">
<feFlood flood-opacity="0" result="BackgroundImageFix"/>
<feColorMatrix in="SourceAlpha" type="matrix" values="0 0 0 0 0 0 0 0 0 0 0 0 0 0 0 0 0 0 127 0" result="hardAlpha"/>
<feOffset dy="4"/>
<feGaussianBlur stdDeviation="2"/>
<feComposite in2="hardAlpha" operator="out"/>
<feColorMatrix type="matrix" values="0 0 0 0 0 0 0 0 0 0 0 0 0 0 0 0 0 0 0.25 0"/>
<feBlend mode="normal" in2="BackgroundImageFix" result="effect1_dropShadow_20_1086"/>
<feBlend mode="normal" in="SourceGraphic" in2="effect1_dropShadow_20_1086" result="shape"/>
</filter>
<clipPath id="clip0_20_1086">
<rect width="35" height="35" fill="white"/>
</clipPath>
</defs>
</svg>
