<svg width="20" height="14" viewBox="0 0 20 14" fill="none" xmlns="http://www.w3.org/2000/svg">
<path fill-rule="evenodd" clip-rule="evenodd" d="M0.0482178 1.375C0.0482178 1.15926 0.223107 0.984375 0.438843 0.984375H15.7454C15.9611 0.984375 16.136 1.15926 16.136 1.375V2.64844C18.0803 2.04198 20.1553 3.62173 19.9908 5.711C19.9283 6.68003 19.4656 7.59977 18.7247 8.22831C17.8591 8.96358 16.2197 9.67868 14.9077 10.177C13.5194 12.3453 11.0893 13.7825 8.3235 13.7825H7.86071C3.54599 13.7825 0.0482178 10.2847 0.0482178 5.97V1.375ZM16.136 5.97C16.136 6.62073 16.0564 7.25289 15.9065 7.85727L15.9423 7.84064C16.7047 7.48551 17.2774 7.15131 17.5867 6.88859L17.5876 6.8878C17.9652 6.56749 18.2048 6.09061 18.2366 5.59785L18.2374 5.58544L18.2384 5.57304C18.3065 4.70791 17.3538 4.01636 16.5362 4.3725L16.5336 4.37365L16.5309 4.3748C16.5042 4.38634 16.4659 4.40577 16.3416 4.47363L16.3413 4.47383C16.2967 4.49819 16.2394 4.52943 16.1793 4.56114L16.136 4.58393V5.97ZM11.7816 7.46259C11.2442 8.30788 9.95471 9.3648 9.06113 10.0399C8.81215 10.2281 8.11465 10.7182 8.11465 10.7182C8.11465 10.7182 7.41715 10.2281 7.16817 10.0399C6.27459 9.3648 4.98509 8.30788 4.44773 7.46259C4.04563 6.83109 3.91482 6.04871 4.08971 5.32127C4.46337 3.66422 6.5325 2.98711 7.82136 4.09756C7.89385 4.1596 7.96067 4.22838 8.02926 4.299C8.05724 4.32782 8.08554 4.35695 8.11465 4.38606C8.14376 4.35695 8.17206 4.32783 8.20004 4.29901C8.26863 4.22838 8.33545 4.1596 8.40794 4.09756C9.6968 2.98711 11.7659 3.66422 12.1396 5.32127C12.3145 6.04871 12.1837 6.83109 11.7816 7.46259Z" fill="#B5002C"/>
</svg>
