<svg width="35" height="23" viewBox="0 0 35 23" fill="none" xmlns="http://www.w3.org/2000/svg">
<path fill-rule="evenodd" clip-rule="evenodd" d="M0 0.683594C0 0.306055 0.306055 0 0.683594 0H27.47C27.8476 0 28.1536 0.306055 28.1536 0.683594V2.91211C31.5561 1.85081 35.1873 4.61537 34.8995 8.2716C34.7901 9.9674 33.9805 11.5769 32.6838 12.6769C31.169 13.9636 28.3002 15.215 26.0041 16.087C23.5745 19.8816 19.3218 22.3967 14.4817 22.3967H13.6719C6.12109 22.3967 0 16.2756 0 8.72484V0.683594ZM28.1536 8.72484C28.1536 9.86363 28.0144 10.9699 27.752 12.0276L27.8147 11.9985C29.1488 11.377 30.151 10.7921 30.6923 10.3324L30.6939 10.331C31.3547 9.77046 31.7741 8.93591 31.8297 8.07358L31.8311 8.05186L31.8328 8.03016C31.952 6.51619 30.2848 5.30598 28.854 5.92923L28.8494 5.93124L28.8448 5.93324C28.798 5.95343 28.731 5.98745 28.5135 6.1062L28.5128 6.10654C28.4348 6.14917 28.3347 6.20384 28.2293 6.25934L28.1536 6.29923V8.72484ZM20.5334 11.3369C19.593 12.8161 17.3364 14.6657 15.7726 15.8472C15.3369 16.1764 14.1163 17.0341 14.1163 17.0341C14.1163 17.0341 12.8956 16.1764 12.4599 15.8472C10.8962 14.6657 8.63952 12.8161 7.69914 11.3369C6.99547 10.2318 6.76655 8.86259 7.07261 7.58956C7.72651 4.68972 11.3475 3.50478 13.603 5.44808C13.7299 5.55665 13.8468 5.67701 13.9668 5.8006C14.0158 5.85104 14.0653 5.90201 14.1163 5.95294C14.1672 5.90201 14.2167 5.85104 14.2657 5.8006C14.3857 5.67701 14.5027 5.55665 14.6295 5.44808C16.885 3.50478 20.506 4.68972 21.1599 7.58956C21.466 8.86259 21.237 10.2318 20.5334 11.3369Z" fill="#F3003B"/>
</svg>
