<svg width="35" height="35" viewBox="0 0 35 35" fill="none" xmlns="http://www.w3.org/2000/svg">
<g clip-path="url(#clip0_20_1086)">
<g filter="url(#filter0_d_20_1086)">
<path fill-rule="evenodd" clip-rule="evenodd" d="M0.0844727 7.65625C0.0844727 7.27871 0.390528 6.97266 0.768066 6.97266H27.5545C27.932 6.97266 28.2381 7.27871 28.2381 7.65625V9.88477C31.6406 8.82347 35.2718 11.588 34.9839 15.2443C34.8746 16.9401 34.065 18.5496 32.7682 19.6495C31.2535 20.9363 28.3846 22.1877 26.0886 23.0597C23.659 26.8543 19.4063 29.3694 14.5662 29.3694H13.7563C6.20557 29.3694 0.0844727 23.2483 0.0844727 15.6975V7.65625ZM28.2381 15.6975C28.2381 16.8363 28.0989 17.9426 27.8365 19.0002L27.8991 18.9711C29.2333 18.3496 30.2355 17.7648 30.7767 17.305L30.7784 17.3036C31.4392 16.7431 31.8585 15.9086 31.9142 15.0462L31.9156 15.0245L31.9173 15.0028C32.0365 13.4888 30.3692 12.2786 28.9385 12.9019L28.9339 12.9039L28.9292 12.9059C28.8825 12.9261 28.8155 12.9601 28.5979 13.0789L28.5973 13.0792C28.5192 13.1218 28.4191 13.1765 28.3138 13.232L28.2381 13.2719V15.6975ZM20.6179 18.3095C19.6775 19.7888 17.4208 21.6384 15.8571 22.8198C15.4214 23.1491 14.2007 24.0068 14.2007 24.0068C14.2007 24.0068 12.9801 23.1491 12.5444 22.8198C10.9806 21.6384 8.72399 19.7888 7.78361 18.3095C7.07995 17.2044 6.85103 15.8352 7.15708 14.5622C7.81098 11.6624 11.432 10.4774 13.6875 12.4207C13.8143 12.5293 13.9313 12.6497 14.0513 12.7733C14.1003 12.8237 14.1498 12.8747 14.2007 12.9256C14.2517 12.8747 14.3012 12.8237 14.3502 12.7733C14.4702 12.6497 14.5871 12.5293 14.714 12.4207C16.9695 10.4774 20.5905 11.6624 21.2444 14.5622C21.5504 15.8352 21.3215 17.2044 20.6179 18.3095Z" fill="#F3003B"/>
</g>
</g>
<defs>
<filter id="filter0_d_20_1086" x="-3.91553" y="6.97266" width="42.9155" height="30.3967" filterUnits="userSpaceOnUse" color-interpolation-filters="sRGB">
<feFlood flood-opacity="0" result="BackgroundImageFix"/>
<feColorMatrix in="SourceAlpha" type="matrix" values="0 0 0 0 0 0 0 0 0 0 0 0 0 0 0 0 0 0 127 0" result="hardAlpha"/>
<feOffset dy="4"/>
<feGaussianBlur stdDeviation="2"/>
<feComposite in2="hardAlpha" operator="out"/>
<feColorMatrix type="matrix" values="0 0 0 0 0 0 0 0 0 0 0 0 0 0 0 0 0 0 0.25 0"/>
<feBlend mode="normal" in2="BackgroundImageFix" result="effect1_dropShadow_20_1086"/>
<feBlend mode="normal" in="SourceGraphic" in2="effect1_dropShadow_20_1086" result="shape"/>
</filter>
<clipPath id="clip0_20_1086">
<rect width="35" height="35" fill="white"/>
</clipPath>
</defs>
</svg>
