<svg width="35" height="29" viewBox="0 0 35 29" fill="none" xmlns="http://www.w3.org/2000/svg">
<g filter="url(#filter0_d_20_1087)">
<path fill-rule="evenodd" clip-rule="evenodd" d="M0.0844727 1.65625C0.0844727 1.27871 0.390528 0.972656 0.768066 0.972656H27.5545C27.932 0.972656 28.2381 1.27871 28.2381 1.65625V3.88477C31.6406 2.82347 35.2718 5.58803 34.9839 9.24426C34.8746 10.9401 34.065 12.5496 32.7682 13.6495C31.2535 14.9363 28.3846 16.1877 26.0886 17.0597C23.659 20.8543 19.4063 23.3694 14.5662 23.3694H13.7563C6.20557 23.3694 0.0844727 17.2483 0.0844727 9.69749V1.65625ZM28.2381 9.69749C28.2381 10.8363 28.0989 11.9426 27.8365 13.0002L27.8991 12.9711C29.2333 12.3496 30.2355 11.7648 30.7767 11.305L30.7784 11.3036C31.4392 10.7431 31.8585 9.90856 31.9142 9.04623L31.9156 9.02451L31.9173 9.00282C32.0365 7.48884 30.3692 6.27864 28.9385 6.90188L28.9339 6.9039L28.9292 6.90589C28.8825 6.92609 28.8155 6.9601 28.5979 7.07885L28.5973 7.07919C28.5192 7.12183 28.4191 7.1765 28.3138 7.232L28.2381 7.27188V9.69749ZM20.6179 12.3095C19.6775 13.7888 17.4208 15.6384 15.8571 16.8198C15.4214 17.1491 14.2007 18.0068 14.2007 18.0068C14.2007 18.0068 12.9801 17.1491 12.5444 16.8198C10.9806 15.6384 8.72399 13.7888 7.78361 12.3095C7.07995 11.2044 6.85103 9.83525 7.15708 8.56222C7.81098 5.66238 11.432 4.47744 13.6875 6.42074C13.8143 6.52931 13.9313 6.64967 14.0513 6.77325C14.1003 6.82369 14.1498 6.87467 14.2007 6.9256C14.2517 6.87467 14.3012 6.8237 14.3502 6.77326C14.4702 6.64967 14.5871 6.52931 14.714 6.42074C16.9695 4.47744 20.5905 5.66238 21.2444 8.56222C21.5504 9.83525 21.3215 11.2044 20.6179 12.3095Z" fill="#F3003B"/>
</g>
<defs>
<filter id="filter0_d_20_1087" x="-3.91553" y="0.972656" width="42.9155" height="30.3967" filterUnits="userSpaceOnUse" color-interpolation-filters="sRGB">
<feFlood flood-opacity="0" result="BackgroundImageFix"/>
<feColorMatrix in="SourceAlpha" type="matrix" values="0 0 0 0 0 0 0 0 0 0 0 0 0 0 0 0 0 0 127 0" result="hardAlpha"/>
<feOffset dy="4"/>
<feGaussianBlur stdDeviation="2"/>
<feComposite in2="hardAlpha" operator="out"/>
<feColorMatrix type="matrix" values="0 0 0 0 0 0 0 0 0 0 0 0 0 0 0 0 0 0 0.25 0"/>
<feBlend mode="normal" in2="BackgroundImageFix" result="effect1_dropShadow_20_1087"/>
<feBlend mode="normal" in="SourceGraphic" in2="effect1_dropShadow_20_1087" result="shape"/>
</filter>
</defs>
</svg>
