<svg width="80" height="46" viewBox="0 0 80 46" fill="none" xmlns="http://www.w3.org/2000/svg">
<path fill-rule="evenodd" clip-rule="evenodd" d="M36.8749 3.53064C36.8749 1.80475 38.274 0.40564 39.9999 0.40564C41.7258 0.40564 43.1249 1.80475 43.1249 3.53064V5.99466C63.2421 7.54922 79.1883 23.9855 79.9699 44.31C80.003 45.1723 79.3004 45.8744 78.4374 45.8744H1.56241C0.699462 45.8744 -0.00322579 45.1723 0.0299361 44.31C0.811558 23.9855 16.7577 7.54922 36.8749 5.99466V3.53064ZM52.5663 28.5636C50.7133 31.476 46.2668 35.1176 43.1855 37.4437C42.3269 38.092 39.9218 39.7806 39.9218 39.7806C39.9218 39.7806 37.5166 38.092 36.6581 37.4437C33.5768 35.1176 29.1303 31.476 27.2773 28.5636C25.8908 26.3877 25.4397 23.6921 26.0428 21.1857C27.3312 15.4763 34.4661 13.1433 38.9105 16.9694C39.1604 17.1831 39.3908 17.4201 39.6273 17.6634C39.7238 17.7627 39.8214 17.8631 39.9218 17.9634C40.0222 17.8631 40.1198 17.7628 40.2162 17.6634C40.4528 17.4201 40.6832 17.1831 40.9331 16.9694C45.3774 13.1433 52.5124 15.4763 53.8008 21.1857C54.4039 23.6921 53.9528 26.3877 52.5663 28.5636Z" fill="url(#paint0_linear_8_413)"/>
<defs>
<linearGradient id="paint0_linear_8_413" x1="0.0288086" y1="45.8744" x2="39.1089" y2="-22.8355" gradientUnits="userSpaceOnUse">
<stop stop-color="#B5002C"/>
<stop offset="1" stop-color="#F3003B"/>
</linearGradient>
</defs>
</svg>
