<svg width="35" height="35" viewBox="0 0 35 35" fill="none" xmlns="http://www.w3.org/2000/svg">
<path fill-rule="evenodd" clip-rule="evenodd" d="M16.1328 8.54492C16.1328 7.78985 16.7449 7.17773 17.5 7.17773C18.2551 7.17773 18.8672 7.78985 18.8672 8.54492V9.62293C27.6684 10.303 34.6449 17.4939 34.9869 26.3859C35.0014 26.7632 34.6939 27.0703 34.3164 27.0703H0.683594C0.306055 27.0703 -0.0013704 26.7632 0.0131379 26.3859C0.355098 17.4939 7.33156 10.303 16.1328 9.62293V8.54492ZM22.9978 19.4968C22.1871 20.771 20.2418 22.3642 18.8937 23.3819C18.5181 23.6655 17.4658 24.4043 17.4658 24.4043C17.4658 24.4043 16.4136 23.6655 16.0379 23.3819C14.6899 22.3642 12.7445 20.771 11.9339 19.4968C11.3273 18.5449 11.1299 17.3655 11.3937 16.269C11.9575 13.7711 15.079 12.7505 17.0234 14.4244C17.1327 14.5179 17.2335 14.6216 17.337 14.728C17.3792 14.7715 17.4219 14.8154 17.4658 14.8592C17.5097 14.8154 17.5524 14.7715 17.5946 14.728C17.6981 14.6216 17.7989 14.5179 17.9083 14.4244C19.8527 12.7505 22.9742 13.7711 23.5379 16.269C23.8017 17.3655 23.6044 18.5449 22.9978 19.4968Z" fill="#F3003B"/>
<path d="M0.683594 28.4375C0.306055 28.4375 0 28.7436 0 29.1211V30.4883C0 30.8658 0.306055 31.1719 0.683594 31.1719H34.3164C34.6939 31.1719 35 30.8658 35 30.4883V29.1211C35 28.7436 34.6939 28.4375 34.3164 28.4375H0.683594Z" fill="#F3003B"/>
</svg>
