<svg width="80" height="80" viewBox="0 0 80 80" fill="none" xmlns="http://www.w3.org/2000/svg">
<path fill-rule="evenodd" clip-rule="evenodd" d="M36.875 19.5306C36.875 17.8047 38.2741 16.4056 40 16.4056C41.7259 16.4056 43.125 17.8047 43.125 19.5306V21.9946C63.2422 23.5492 79.1883 39.9855 79.97 60.31C80.0031 61.1723 79.3004 61.8744 78.4375 61.8744H1.5625C0.699553 61.8744 -0.00313424 61.1723 0.0300277 60.31C0.81165 39.9855 16.7578 23.5492 36.875 21.9946V19.5306ZM52.5664 44.5636C50.7134 47.476 46.2669 51.1176 43.1856 53.4437C42.327 54.092 39.9219 55.7806 39.9219 55.7806C39.9219 55.7806 37.5167 54.092 36.6582 53.4437C33.5769 51.1176 29.1303 47.476 27.2774 44.5636C25.8909 42.3877 25.4398 39.692 26.0428 37.1856C27.3313 31.4763 34.4662 29.1433 38.9105 32.9694C39.1605 33.1831 39.3909 33.4201 39.6274 33.6634C39.7239 33.7627 39.8215 33.8631 39.9219 33.9634C40.0223 33.8631 40.1198 33.7627 40.2163 33.6634C40.4528 33.4201 40.6833 33.1831 40.9332 32.9694C45.3775 29.1433 52.5124 31.4763 53.8009 37.1856C54.404 39.692 53.9528 42.3877 52.5664 44.5636Z" fill="url(#paint0_linear_0_5)"/>
<defs>
<linearGradient id="paint0_linear_0_5" x1="0.0289001" y1="61.8744" x2="39.109" y2="-6.8355" gradientUnits="userSpaceOnUse">
<stop stop-color="#B5002C"/>
<stop offset="1" stop-color="#F3003B"/>
</linearGradient>
</defs>
</svg>
