<svg width="35" height="35" viewBox="0 0 35 35" fill="none" xmlns="http://www.w3.org/2000/svg">
<path fill-rule="evenodd" clip-rule="evenodd" d="M3.41797 35C1.53028 35 0 33.4697 0 31.582V3.41797C0 1.53028 1.53028 0 3.41797 0H31.582C33.4697 0 35 1.53028 35 3.41797V31.582C35 33.4697 33.4697 35 31.582 35H3.41797ZM5.50333 2.05078H3.41797C2.66289 2.05078 2.05078 2.66289 2.05078 3.41797V8.23529H5.50333V2.05078ZM5.50333 10.2941V16.4706H2.05078V10.2941H5.50333ZM5.50333 18.5294H2.05078V24.7059H5.50333V18.5294ZM2.05078 31.582V26.7647H5.50333V32.9492H3.41797C2.66289 32.9492 2.05078 32.3371 2.05078 31.582ZM31.582 2.05078H29.4967V8.23529H32.9492V3.41797C32.9492 2.66289 32.3371 2.05078 31.582 2.05078ZM29.4967 16.4706V10.2941H32.9492V16.4706H29.4967ZM32.9492 18.5294H29.4967V24.7059H32.9492V18.5294ZM32.9492 26.7647V31.582C32.9492 32.3371 32.3371 32.9492 31.582 32.9492H29.4967V26.7647H32.9492ZM24.5907 18.1675C23.5516 19.8046 21.0581 21.8516 19.3302 23.159C18.8488 23.5235 17.5 24.4727 17.5 24.4727C17.5 24.4727 16.1513 23.5235 15.6698 23.159C13.9419 21.8516 11.4484 19.8046 10.4093 18.1675C9.63178 16.9445 9.37883 15.4292 9.71701 14.0203C10.4396 10.8111 14.4406 9.49969 16.9329 11.6503C17.073 11.7705 17.2022 11.9037 17.3349 12.0405C17.389 12.0963 17.4437 12.1527 17.5 12.2091C17.5563 12.1527 17.611 12.0963 17.6651 12.0405C17.7978 11.9037 17.927 11.7705 18.0671 11.6503C20.5594 9.49969 24.5605 10.8111 25.283 14.0203C25.6212 15.4292 25.3682 16.9445 24.5907 18.1675Z" fill="#F3003B"/>
</svg>
