<svg width="80" height="80" viewBox="0 0 80 80" fill="none" xmlns="http://www.w3.org/2000/svg">
<path fill-rule="evenodd" clip-rule="evenodd" d="M7.8125 80C3.49778 80 0 76.5022 0 72.1875V7.8125C0 3.49778 3.49778 0 7.8125 0H72.1875C76.5022 0 80 3.49778 80 7.8125V72.1875C80 76.5022 76.5022 80 72.1875 80H7.8125ZM12.579 4.6875H7.8125C6.08661 4.6875 4.6875 6.08661 4.6875 7.8125V18.8235H12.579V4.6875ZM12.579 23.5294V37.6471H4.6875V23.5294H12.579ZM12.579 42.3529H4.6875V56.4706H12.579V42.3529ZM4.6875 72.1875V61.1765H12.579V75.3125H7.8125C6.08661 75.3125 4.6875 73.9134 4.6875 72.1875ZM72.1875 4.6875H67.421V18.8235H75.3125V7.8125C75.3125 6.08661 73.9134 4.6875 72.1875 4.6875ZM67.421 37.6471V23.5294H75.3125V37.6471H67.421ZM75.3125 42.3529H67.421V56.4706H75.3125V42.3529ZM75.3125 61.1765V72.1875C75.3125 73.9134 73.9134 75.3125 72.1875 75.3125H67.421V61.1765H75.3125ZM56.2073 41.5257C53.8322 45.2676 48.1328 49.9464 44.1833 52.935C43.0829 53.7679 40 55.9375 40 55.9375C40 55.9375 36.9172 53.7679 35.8167 52.935C31.8672 49.9464 26.1678 45.2676 23.7927 41.5257C22.0155 38.7302 21.4373 35.2667 22.2103 32.0465C23.8618 24.711 33.0071 21.7136 38.7037 26.6294C39.0241 26.904 39.3194 27.2085 39.6226 27.5211C39.7463 27.6487 39.8713 27.7776 40 27.9065C40.1287 27.7776 40.2538 27.6487 40.3774 27.5211C40.6806 27.2085 40.9759 26.904 41.2963 26.6294C46.9929 21.7136 56.1382 24.711 57.7897 32.0465C58.5627 35.2667 57.9845 38.7302 56.2073 41.5257Z" fill="url(#paint0_linear_6_89)"/>
<path d="M44.1833 52.935C48.1328 49.9464 53.8322 45.2676 56.2073 41.5257C57.9845 38.7302 58.5627 35.2667 57.7897 32.0465C56.1382 24.711 46.9929 21.7136 41.2963 26.6294C40.9759 26.904 40.6806 27.2085 40.3774 27.5211C40.2538 27.6487 40.1287 27.7776 40 27.9065C39.8713 27.7776 39.7463 27.6487 39.6226 27.5211C39.3194 27.2085 39.0241 26.904 38.7037 26.6294C33.0071 21.7136 23.8618 24.711 22.2103 32.0465C21.4373 35.2667 22.0155 38.7302 23.7927 41.5257C26.1678 45.2676 31.8672 49.9464 35.8167 52.935C36.9172 53.7679 40 55.9375 40 55.9375C40 55.9375 43.0829 53.7679 44.1833 52.935Z" fill="url(#paint1_linear_6_89)"/>
<defs>
<linearGradient id="paint0_linear_6_89" x1="0" y1="80" x2="80" y2="0" gradientUnits="userSpaceOnUse">
<stop stop-color="#B5002C"/>
<stop offset="1" stop-color="#F3003B"/>
</linearGradient>
<linearGradient id="paint1_linear_6_89" x1="0" y1="80" x2="80" y2="0" gradientUnits="userSpaceOnUse">
<stop stop-color="#B5002C"/>
<stop offset="1" stop-color="#F3003B"/>
</linearGradient>
</defs>
</svg>
