<svg width="114" height="114" viewBox="0 0 114 114" fill="none" xmlns="http://www.w3.org/2000/svg">
<g clip-path="url(#clip0_6_176)">
<path fill-rule="evenodd" clip-rule="evenodd" d="M20.2352 64.7059C21.4882 62.3486 23.3458 60.3587 25.5716 58.9277C23.1876 57.7795 21.1007 56.0315 19.569 53.845C14.0194 46.1565 18.8284 35.0132 28.2313 33.7389C28.7584 33.6657 29.2927 33.6411 29.8413 33.6159C30.0652 33.6057 30.2915 33.5952 30.5207 33.5813C30.5065 33.3522 30.4892 33.1262 30.472 32.9028C30.4299 32.3553 30.389 31.8219 30.3973 31.2898C30.5129 21.8017 40.9848 15.6669 49.294 20.2352C51.6513 21.4882 53.6413 23.3458 55.0722 25.5716C56.2204 23.1876 57.9684 21.1007 60.155 19.569C67.8435 14.0194 78.9867 18.8284 80.2611 28.2313C80.3343 28.7584 80.3589 29.2927 80.3841 29.8413C80.3943 30.0652 80.4047 30.2915 80.4186 30.5207C80.6478 30.5065 80.8737 30.4892 81.0971 30.472C81.6447 30.4299 82.178 30.389 82.7101 30.3973C92.1983 30.5129 98.3331 40.9848 93.7647 49.294C92.5117 51.6513 90.6542 53.6413 88.4284 55.0722C90.8124 56.2204 92.8992 57.9684 94.4309 60.155C99.9805 67.8435 95.1715 78.9867 85.7687 80.2611C85.2415 80.3343 84.7072 80.3589 84.1586 80.3841C83.9348 80.3943 83.7084 80.4047 83.4793 80.4186C83.4935 80.6478 83.5108 80.8737 83.528 81.0971C83.57 81.6447 83.6109 82.178 83.6027 82.7101C83.4871 92.1983 73.0151 98.3331 64.7059 93.7647C62.3486 92.5117 60.3587 90.6541 58.9277 88.4284C57.7795 90.8124 56.0315 92.8992 53.845 94.4309C46.1565 99.9805 35.0132 95.1715 33.7389 85.7687C33.6657 85.2415 33.6411 84.7072 33.6159 84.1586C33.6056 83.9348 33.5952 83.7084 33.5813 83.4793C33.3522 83.4935 33.1263 83.5108 32.9028 83.528C32.3553 83.57 31.8219 83.6109 31.2898 83.6027C21.8017 83.4871 15.6669 73.0151 20.2352 64.7059ZM45.7668 45.237C50.0249 44.0075 57.3938 44.2785 62.3321 44.6564C63.7083 44.7615 67.4549 45.1787 67.4549 45.1787C67.4549 45.1787 68.3268 48.8462 68.5993 50.1992C69.5779 55.0543 70.7475 62.3349 70.0477 66.7113C69.5269 69.9827 67.6655 72.9601 64.9531 74.8603C58.8563 79.2609 50.0201 75.4475 49.0096 67.9914C48.9515 67.5734 48.932 67.1497 48.912 66.7146C48.9039 66.5371 48.8956 66.3577 48.8846 66.1759C48.7029 66.1872 48.5238 66.2009 48.3466 66.2146C47.9124 66.2479 47.4895 66.2803 47.0675 66.2738C39.5437 66.1821 34.679 57.8782 38.3016 51.2893C39.8559 48.365 42.5836 46.1537 45.7668 45.237Z" fill="url(#paint0_linear_6_176)"/>
<path d="M62.3321 44.6564C57.3938 44.2785 50.0249 44.0075 45.7668 45.237C42.5836 46.1537 39.8559 48.365 38.3016 51.2893C34.679 57.8782 39.5437 66.1821 47.0675 66.2738C47.4895 66.2803 47.9124 66.2479 48.3466 66.2146C48.5238 66.2009 48.7029 66.1872 48.8846 66.1759C48.8956 66.3577 48.9039 66.5371 48.912 66.7146C48.932 67.1497 48.9515 67.5734 49.0096 67.9914C50.0201 75.4475 58.8563 79.2609 64.9531 74.8603C67.6655 72.9601 69.5269 69.9827 70.0477 66.7113C70.7475 62.3349 69.5779 55.0543 68.5993 50.1992C68.3268 48.8462 67.4549 45.1787 67.4549 45.1787C67.4549 45.1787 63.7083 44.7615 62.3321 44.6564Z" fill="url(#paint1_linear_6_176)"/>
<circle cx="57" cy="56.9999" r="15" transform="rotate(-138.51 57 56.9999)" fill="white"/>
</g>
<defs>
<linearGradient id="paint0_linear_6_176" x1="113.462" y1="53.5367" x2="0.537543" y2="60.4633" gradientUnits="userSpaceOnUse">
<stop stop-color="#B5002C"/>
<stop offset="1" stop-color="#F3003B"/>
</linearGradient>
<linearGradient id="paint1_linear_6_176" x1="113.462" y1="53.5367" x2="0.537543" y2="60.4633" gradientUnits="userSpaceOnUse">
<stop stop-color="#B5002C"/>
<stop offset="1" stop-color="#F3003B"/>
</linearGradient>
<clipPath id="clip0_6_176">
<rect width="80" height="80" fill="white" transform="translate(60.4633 113.462) rotate(-138.51)"/>
</clipPath>
</defs>
</svg>
