<svg width="35" height="35" viewBox="0 0 35 35" fill="none" xmlns="http://www.w3.org/2000/svg">
<g clip-path="url(#clip0_66_22)">
<path fill-rule="evenodd" clip-rule="evenodd" d="M27.2409 7.75906C27.5556 6.64499 27.5876 5.45446 27.315 4.31874C26.4038 0.271598 21.3581 -1.38216 18.2152 1.32999C18.0384 1.48152 17.8755 1.6495 17.7082 1.82199C17.64 1.89239 17.571 1.96352 17.5 2.0346C17.429 1.96352 17.36 1.89238 17.2918 1.82198C17.1245 1.6495 16.9616 1.48152 16.7848 1.32999C13.6419 -1.38216 8.59618 0.271598 7.685 4.31874C7.41239 5.45446 7.44438 6.64499 7.75906 7.75906C6.64499 7.44438 5.45446 7.41238 4.31874 7.68499C0.271598 8.59617 -1.38216 13.6419 1.32999 16.7848C1.48152 16.9616 1.6495 17.1245 1.82199 17.2918C1.89239 17.36 1.96352 17.429 2.0346 17.5C1.96352 17.571 1.89238 17.64 1.82198 17.7082C1.6495 17.8755 1.48152 18.0384 1.32999 18.2152C-1.38216 21.3581 0.271598 26.4038 4.31874 27.315C5.45445 27.5876 6.64499 27.5556 7.75905 27.2409C7.44437 28.355 7.41238 29.5455 7.68499 30.6813C8.59618 34.7284 13.6419 36.3822 16.7848 33.67C16.9616 33.5185 17.1245 33.3505 17.2918 33.178C17.36 33.1076 17.429 33.0365 17.5 32.9654C17.571 33.0365 17.64 33.1076 17.7082 33.178C17.8755 33.3505 18.0384 33.5185 18.2152 33.67C21.3581 36.3822 26.4038 34.7284 27.315 30.6813C27.5876 29.5455 27.5556 28.355 27.2409 27.2409C28.355 27.5556 29.5455 27.5876 30.6813 27.315C34.7284 26.4038 36.3822 21.3581 33.67 18.2152C33.5185 18.0384 33.3505 17.8755 33.178 17.7082C33.1076 17.64 33.0365 17.571 32.9654 17.5C33.0365 17.429 33.1076 17.36 33.178 17.2918C33.3505 17.1245 33.5185 16.9616 33.67 16.7848C36.3822 13.6419 34.7284 8.59617 30.6813 7.68499C29.5455 7.41238 28.355 7.44438 27.2409 7.75906ZM17.5 24.0625C21.1244 24.0625 24.0625 21.1244 24.0625 17.5C24.0625 13.8756 21.1244 10.9375 17.5 10.9375C13.8756 10.9375 10.9375 13.8756 10.9375 17.5C10.9375 21.1244 13.8756 24.0625 17.5 24.0625Z" fill="#F3003B"/>
</g>
<defs>
<clipPath id="clip0_66_22">
<rect width="35" height="35" fill="white"/>
</clipPath>
</defs>
</svg>
