<svg width="32" height="29" viewBox="0 0 32 29" fill="none" xmlns="http://www.w3.org/2000/svg">
<path d="M19.6929 26.2548C23.1793 23.5224 28.2105 19.2447 30.3071 15.8235C31.8759 13.2676 32.3864 10.101 31.704 7.15678C30.2461 0.450078 22.173 -2.29044 17.1443 2.20399C16.8615 2.45509 16.6008 2.73346 16.3332 3.0193C16.224 3.13595 16.1136 3.25384 16 3.37162C15.8864 3.25384 15.776 3.13594 15.6668 3.01928C15.3992 2.73346 15.1385 2.45509 14.8557 2.20399C9.82698 -2.29044 1.7539 0.450078 0.295997 7.15678C-0.386357 10.101 0.124028 13.2676 1.69288 15.8235C3.78947 19.2447 8.82071 23.5224 12.3071 26.2548C13.2786 27.0164 16 29 16 29C16 29 18.7214 27.0164 19.6929 26.2548Z" fill="white"/>
</svg>
