<svg width="22" height="20" viewBox="0 0 22 20" fill="none" xmlns="http://www.w3.org/2000/svg">
<path d="M13.5388 18.1068C15.9358 16.2224 19.3947 13.2722 20.8362 10.9128C21.9147 9.15006 22.2656 6.96622 21.7965 4.93571C20.7942 0.310399 15.244 -1.57961 11.7867 1.51999C11.5923 1.69317 11.413 1.88514 11.2291 2.08227C11.154 2.16273 11.0781 2.24403 11 2.32526C10.9219 2.24403 10.846 2.16271 10.7709 2.08226C10.587 1.88514 10.4077 1.69317 10.2133 1.51999C6.75605 -1.57961 1.2058 0.310399 0.203498 4.93571C-0.26562 6.96622 0.085269 9.15006 1.16385 10.9128C2.60526 13.2722 6.06424 16.2224 8.46116 18.1068C9.12903 18.632 11 20 11 20C11 20 12.871 18.632 13.5388 18.1068Z" fill="#B5002C"/>
</svg>
