<svg width="68" height="57" viewBox="0 0 68 57" fill="none" xmlns="http://www.w3.org/2000/svg">
<path d="M41.8473 51.6043C49.256 46.2338 59.9474 37.8258 64.4027 31.1014C67.7364 26.0777 68.821 19.8537 67.371 14.0668C64.273 0.884636 47.1177 -4.5019 36.4317 4.33198C35.8307 4.82552 35.2767 5.37266 34.708 5.93448C34.476 6.16377 34.2413 6.39547 34 6.62698C33.7587 6.39547 33.524 6.16374 33.292 5.93445C32.7233 5.37266 32.1693 4.82552 31.5683 4.33198C20.8823 -4.5019 3.72703 0.884636 0.628993 14.0668C-0.821008 19.8537 0.263559 26.0777 3.59736 31.1014C8.05263 37.8258 18.744 46.2338 26.1527 51.6043C28.217 53.1011 34 57 34 57C34 57 39.783 53.1011 41.8473 51.6043Z" fill="#B5002C"/>
</svg>
