<svg width="70" height="70" viewBox="0 0 70 70" fill="none" xmlns="http://www.w3.org/2000/svg">
<path fill-rule="evenodd" clip-rule="evenodd" d="M36.9844 20.1278L39.5714 0.29583C38.0752 0.100671 36.5494 0 35 0C33.4507 0 31.9249 0.100671 30.4287 0.29583L33.0156 20.1278C33.6562 20.0443 34.318 20 35 20C35.6821 20 36.3438 20.0443 36.9844 20.1278Z" fill="#3A010F"/>
<path d="M38.8972 20.5061C40.1633 20.8445 41.3671 21.3473 42.4867 21.9951L52.5028 4.68395C49.8847 3.16915 47.0522 1.98376 44.062 1.18445L38.8972 20.5061Z" fill="#3A010F"/>
<path d="M44.1208 23.0895C45.1672 23.8935 46.1065 24.8328 46.9105 25.8792L62.7689 13.6926C60.9057 11.268 58.732 9.09432 56.3074 7.23108L44.1208 23.0895Z" fill="#3A010F"/>
<path d="M48.0049 27.5133C48.6527 28.6329 49.1555 29.8367 49.494 31.1028L68.8156 25.938C68.0163 22.9478 66.8309 20.1153 65.3161 17.4972L48.0049 27.5133Z" fill="#3A010F"/>
<path d="M50 35C50 35.6821 49.9558 36.3438 49.8722 36.9844L69.7042 39.5714C69.8993 38.0752 70 36.5494 70 35C70 33.4507 69.8993 31.9249 69.7042 30.4287L49.8722 33.0156C49.9558 33.6562 50 34.318 50 35Z" fill="#3A010F"/>
<path d="M49.494 38.8972C49.1555 40.1633 48.6527 41.3671 48.0049 42.4867L65.3161 52.5028C66.8309 49.8847 68.0163 47.0522 68.8156 44.062L49.494 38.8972Z" fill="#3A010F"/>
<path d="M46.9105 44.121C46.1065 45.1673 45.1672 46.1066 44.1208 46.9107L56.3074 62.769C58.732 60.9058 60.9057 58.7321 62.7689 56.3075L46.9105 44.121Z" fill="#3A010F"/>
<path d="M42.4867 48.0049C41.3671 48.6527 40.1633 49.1555 38.8972 49.494L44.062 68.8156C47.0522 68.0163 49.8847 66.8309 52.5028 65.3161L42.4867 48.0049Z" fill="#3A010F"/>
<path d="M35 50C34.318 50 33.6562 49.9558 33.0156 49.8722L30.4287 69.7042C31.9248 69.8993 33.4507 70 35 70C36.5494 70 38.0752 69.8993 39.5714 69.7042L36.9844 49.8722C36.3438 49.9558 35.6821 50 35 50Z" fill="#3A010F"/>
<path d="M31.1028 49.494C29.8367 49.1555 28.6329 48.6527 27.5133 48.0049L17.4972 65.3161C20.1153 66.8309 22.9478 68.0163 25.938 68.8156L31.1028 49.494Z" fill="#3A010F"/>
<path d="M25.879 46.9107C24.8327 46.1066 23.8934 45.1673 23.0893 44.121L7.23096 56.3075C9.09419 58.7321 11.2679 60.9058 13.6925 62.769L25.879 46.9107Z" fill="#3A010F"/>
<path d="M21.9953 42.4867C21.3475 41.3671 20.8446 40.1633 20.5062 38.8972L1.18457 44.062C1.98388 47.0522 3.16927 49.8847 4.68407 52.5028L21.9953 42.4867Z" fill="#3A010F"/>
<path d="M0 34.9999C0 33.4506 0.100671 31.9247 0.29583 30.4286L20.1278 33.0155C20.0443 33.6561 20 34.3179 20 34.9999C20 35.682 20.0443 36.3437 20.1278 36.9843L0.29583 39.5712C0.100671 38.0751 0 36.5493 0 34.9999Z" fill="#3A010F"/>
<path d="M20.5062 31.1028C20.8446 29.8367 21.3475 28.6329 21.9953 27.5133L4.68407 17.4972C3.16927 20.1153 1.98388 22.9478 1.18457 25.938L20.5062 31.1028Z" fill="#3A010F"/>
<path d="M23.0893 25.879C23.8934 24.8327 24.8327 23.8934 25.879 23.0893L13.6925 7.23096C11.2679 9.09419 9.09419 11.2679 7.23096 13.6925L23.0893 25.879Z" fill="#3A010F"/>
<path d="M27.5133 21.9951C28.6329 21.3473 29.8367 20.8445 31.1028 20.5061L25.938 1.18445C22.9478 1.98376 20.1153 3.16915 17.4972 4.68395L27.5133 21.9951Z" fill="#3A010F"/>
</svg>
