<svg width="20" height="22" viewBox="0 0 20 22" fill="none" xmlns="http://www.w3.org/2000/svg">
<path d="M7.69747 14.2375L6.67609 11.2133L9.85943 10.1382C10.2536 10.0051 10.5842 9.80895 10.8513 9.54985C11.1285 9.27046 11.3119 8.93833 11.4014 8.55344C11.491 8.16855 11.4564 7.74114 11.2977 7.27122C11.139 6.8013 10.9073 6.44045 10.6027 6.18867C10.293 5.92173 9.94584 5.76879 9.56115 5.72983C9.1865 5.6706 8.80211 5.70754 8.40798 5.84066L5.22464 6.9158L4.20326 3.89162L8.09148 2.57841C9.12228 2.23027 10.1262 2.12763 11.1033 2.27049C12.0753 2.39819 12.9343 2.76668 13.6805 3.37594C14.4216 3.97005 14.9764 4.81282 15.3451 5.90425C15.7034 6.96537 15.7732 7.97197 15.5544 8.92405C15.3304 9.86098 14.8706 10.6749 14.1751 11.3658C13.4796 12.0566 12.6165 12.5761 11.5857 12.9243L7.69747 14.2375ZM6.41927 21.1035L0.974438 4.98213L5.04457 3.60748L10.4894 19.7288L6.41927 21.1035Z" fill="#E30137"/>
</svg>
