<svg width="35" height="35" viewBox="0 0 35 35" fill="none" xmlns="http://www.w3.org/2000/svg">
<path fill-rule="evenodd" clip-rule="evenodd" d="M31.7191 3.89211C27.2633 2.1345 22.2152 1.16667 17.4999 1.16667C12.648 1.16667 7.59306 2.11852 3.26091 3.84874C2.78935 4.0397 2.41063 4.20441 2.11198 4.34112C1.56532 4.59136 1.37235 5.22911 1.64189 5.76652L2.35308 7.18447C2.62979 7.73618 3.28835 7.9769 3.85563 7.7337L5.71015 6.93863C9.22486 5.54395 13.1639 4.81885 17.5388 4.81885C21.9267 4.81885 25.7887 5.52113 29.35 6.9683L31.1449 7.73536C31.7119 7.97771 32.3697 7.73685 32.6462 7.1856L33.3372 5.80792C33.6153 5.25341 33.4017 4.59507 32.8321 4.3493C32.539 4.22282 32.172 4.07053 31.7191 3.89211ZM29.877 8.21137C26.1988 6.70048 21.6736 5.83334 17.4579 5.83334C13.2083 5.83686 8.99618 6.64458 5.03553 8.21549C5.02526 8.21968 4.83252 8.30968 4.54188 8.44566C3.9641 8.71599 3.71051 9.40042 3.97262 9.98197C4.48659 11.1224 5.0372 12.345 5.29416 12.9172L16.4159 34.175C16.8541 35.0126 18.0542 35.0087 18.4869 34.1683L30.9234 10.0159C31.2344 9.41189 30.9656 8.67095 30.3397 8.40688L29.8899 8.21714L29.877 8.21137ZM13.641 14.6145C14.4037 14.0649 15.5043 13.2044 15.9629 12.5162C16.3061 12.0021 16.4177 11.3652 16.2685 10.7729C15.9496 9.42387 14.1836 8.87262 13.0835 9.77667C13.0217 9.82718 12.9646 9.88317 12.9061 9.94067C12.8822 9.96413 12.8581 9.98785 12.8332 10.0115C12.8084 9.98785 12.7842 9.96413 12.7603 9.94066C12.7018 9.88317 12.6448 9.82718 12.5829 9.77667C11.4829 8.87262 9.71688 9.42387 9.39797 10.7729C9.2487 11.3652 9.36035 12.0021 9.70354 12.5162C10.1622 13.2044 11.2627 14.0649 12.0254 14.6145C12.2379 14.7677 12.8332 15.1667 12.8332 15.1667C12.8332 15.1667 13.4285 14.7677 13.641 14.6145ZM25.2962 16.0162C24.8376 16.7044 23.737 17.5649 22.9744 18.1145C22.7619 18.2677 22.1666 18.6667 22.1666 18.6667C22.1666 18.6667 21.5712 18.2677 21.3587 18.1145C20.5961 17.5649 19.4955 16.7044 19.0369 16.0162C18.6937 15.5021 18.582 14.8652 18.7313 14.2729C19.0502 12.9239 20.8162 12.3726 21.9162 13.2767C21.9781 13.3272 22.0351 13.3832 22.0937 13.4407C22.1176 13.4641 22.1417 13.4878 22.1666 13.5115C22.1914 13.4878 22.2156 13.4641 22.2394 13.4407C22.298 13.3832 22.355 13.3272 22.4169 13.2767C23.5169 12.3726 25.2829 12.9239 25.6018 14.2729C25.7511 14.8652 25.6394 15.5021 25.2962 16.0162ZM20.6296 24.1829C20.1709 24.8711 19.0704 25.7315 18.3077 26.2811C18.0952 26.4343 17.4999 26.8333 17.4999 26.8333C17.4999 26.8333 16.9046 26.4343 16.6921 26.2811C15.9294 25.7315 14.8288 24.8711 14.3702 24.1829C14.027 23.6688 13.9154 23.0318 14.0646 22.4396C14.3836 21.0905 16.1495 20.5393 17.2496 21.4433C17.3114 21.4938 17.3685 21.5498 17.427 21.6073C17.4509 21.6308 17.475 21.6545 17.4999 21.6782C17.5247 21.6545 17.5489 21.6308 17.5728 21.6073C17.6313 21.5498 17.6883 21.4938 17.7502 21.4433C18.8502 20.5393 20.6162 21.0905 20.9351 22.4396C21.0844 23.0318 20.9727 23.6688 20.6296 24.1829Z" fill="#F3003B"/>
</svg>
