<svg width="39" height="39" viewBox="0 0 39 39" fill="none" xmlns="http://www.w3.org/2000/svg">
<path d="M18.9796 0.46227C19.0528 -0.15409 19.9472 -0.15409 20.0204 0.46227L20.6339 5.63297C21.4261 12.3097 26.6903 17.5739 33.367 18.3661L38.5377 18.9796C39.1541 19.0528 39.1541 19.9472 38.5377 20.0204L33.367 20.6339C26.6903 21.4261 21.4261 26.6903 20.6339 33.367L20.0204 38.5377C19.9472 39.1541 19.0528 39.1541 18.9796 38.5377L18.3661 33.367C17.5739 26.6903 12.3097 21.4261 5.63297 20.6339L0.46227 20.0204C-0.15409 19.9472 -0.15409 19.0528 0.46227 18.9796L5.63297 18.3661C12.3097 17.5739 17.5739 12.3097 18.3661 5.63297L18.9796 0.46227Z" fill="white"/>
</svg>
