<svg width="20" height="18" viewBox="0 0 20 18" fill="none" xmlns="http://www.w3.org/2000/svg">
<path fill-rule="evenodd" clip-rule="evenodd" d="M18.942 9.78583C17.6316 11.8476 14.4871 14.4255 12.308 16.0721C11.7009 16.531 10 17.7265 10 17.7265C10 17.7265 8.29912 16.531 7.69196 16.0721C7.64224 16.0345 7.59202 15.9965 7.54134 15.958L7.6345 15.1728C7.83763 13.4608 9.18741 12.1111 10.8994 11.9079L12.2252 11.7506C12.3833 11.7319 12.3833 11.5025 12.2252 11.4838L10.8994 11.3264C9.18741 11.1233 7.83763 9.77353 7.6345 8.06154L7.47718 6.73572C7.45842 6.57768 7.22909 6.57768 7.21032 6.73572L7.053 8.06154C6.84987 9.77353 5.50009 11.1233 3.7881 11.3264L2.46228 11.4838C2.4476 11.4855 2.43428 11.4891 2.42233 11.4941C1.87459 10.9065 1.40283 10.3283 1.05805 9.78583C0.0775173 8.24553 -0.241473 6.33724 0.184998 4.56294C1.09618 0.521233 6.14186 -1.1303 9.28481 1.5782C9.46157 1.72953 9.62451 1.89728 9.79177 2.06953C9.86 2.13983 9.92902 2.21088 10 2.28186C10.071 2.21088 10.14 2.13984 10.2082 2.06954C10.3755 1.89728 10.5384 1.72953 10.7152 1.5782C13.8581 -1.1303 18.9038 0.521233 19.815 4.56294C20.2415 6.33724 19.9225 8.24553 18.942 9.78583ZM14.2926 3.60441C14.3042 3.50686 14.4458 3.50686 14.4574 3.60441L14.5544 4.42269C14.6798 5.47931 15.5129 6.31237 16.5695 6.43774L17.3878 6.53483C17.4853 6.54642 17.4853 6.68796 17.3878 6.69954L16.5695 6.79663C15.5129 6.92201 14.6798 7.75507 14.5544 8.81168L14.4574 9.62996C14.4458 9.72751 14.3042 9.72751 14.2926 9.62996L14.1956 8.81168C14.0702 7.75507 13.2371 6.92201 12.1805 6.79663L11.3622 6.69954C11.2647 6.68796 11.2647 6.54642 11.3622 6.53483L12.1805 6.43774C13.2371 6.31237 14.0702 5.47931 14.1956 4.42269L14.2926 3.60441ZM5.0818 2.47547C5.07579 2.42484 5.00233 2.42484 4.99632 2.47547L4.94593 2.90014C4.88087 3.44852 4.44852 3.88087 3.90014 3.94593L3.47547 3.99632C3.42484 4.00233 3.42484 4.07579 3.47547 4.0818L3.90014 4.13219C4.44852 4.19726 4.88087 4.62961 4.94593 5.17798L4.99632 5.60265C5.00233 5.65328 5.07579 5.65328 5.0818 5.60265L5.13219 5.17798C5.19726 4.62961 5.62961 4.19726 6.17798 4.13219L6.60265 4.0818C6.65328 4.07579 6.65328 4.00233 6.60265 3.99632L6.17798 3.94593C5.62961 3.88087 5.19726 3.44852 5.13219 2.90014L5.0818 2.47547Z" fill="#B5002C"/>
<path d="M2.69196 11.7779C4.01128 13.1413 5.6927 14.5321 7.10664 15.6248L7.053 15.1728C6.84987 13.4608 5.50009 12.1111 3.7881 11.9079L2.69196 11.7779Z" fill="#B5002C"/>
</svg>
