<svg width="35" height="35" viewBox="0 0 35 35" fill="none" xmlns="http://www.w3.org/2000/svg">
<path fill-rule="evenodd" clip-rule="evenodd" d="M33.1484 18.8752C30.8553 22.4832 25.3524 26.9946 21.5391 29.8762C20.4765 30.6793 17.5 32.7713 17.5 32.7713C17.5 32.7713 14.5235 30.6793 13.4609 29.8762C13.3739 29.8105 13.286 29.7439 13.1973 29.6765L13.3604 28.3024C13.7159 25.3065 16.078 22.9444 19.0739 22.5889L21.3941 22.3136C21.6707 22.2807 21.6707 21.8794 21.3941 21.8466L19.0739 21.5713C16.078 21.2158 13.7159 18.8537 13.3604 15.8577L13.0851 13.5375C13.0522 13.2609 12.6509 13.2609 12.6181 13.5375L12.3428 15.8577C11.9873 18.8537 9.62516 21.2158 6.62918 21.5713L4.30899 21.8466C4.2833 21.8496 4.26 21.8559 4.23908 21.8647C3.28053 20.8364 2.45495 19.8245 1.85158 18.8752C0.135655 16.1797 -0.422577 12.8402 0.323746 9.73514C1.91832 2.66216 10.7483 -0.228028 16.2484 4.51186C16.5577 4.77667 16.8429 5.07024 17.1356 5.37168C17.255 5.4947 17.3758 5.61904 17.5 5.74326C17.6242 5.61904 17.745 5.49472 17.8644 5.37169C18.1571 5.07024 18.4423 4.77667 18.7516 4.51186C24.2517 -0.228028 33.0817 2.66216 34.6763 9.73514C35.4226 12.8402 34.8643 16.1797 33.1484 18.8752ZM25.0121 8.05771C25.0324 7.88701 25.2801 7.88701 25.3004 8.05771L25.4703 9.4897C25.6897 11.3388 27.1475 12.7966 28.9966 13.016L30.4286 13.186C30.5993 13.2062 30.5993 13.4539 30.4286 13.4742L28.9966 13.6441C27.1475 13.8635 25.6897 15.3214 25.4703 17.1704L25.3004 18.6024C25.2801 18.7731 25.0324 18.7731 25.0121 18.6024L24.8422 17.1704C24.6228 15.3214 23.165 13.8635 21.3159 13.6441L19.8839 13.4742C19.7132 13.4539 19.7132 13.2062 19.8839 13.186L21.3159 13.016C23.165 12.7966 24.6228 11.3388 24.8422 9.4897L25.0121 8.05771ZM8.89315 6.08207C8.88263 5.99348 8.75408 5.99348 8.74356 6.08207L8.65538 6.82525C8.54152 7.7849 7.7849 8.54152 6.82525 8.65538L6.08207 8.74356C5.99348 8.75408 5.99348 8.88263 6.08207 8.89315L6.82525 8.98134C7.7849 9.0952 8.54152 9.85182 8.65538 10.8115L8.74356 11.5546C8.75408 11.6432 8.88263 11.6432 8.89315 11.5546L8.98134 10.8115C9.0952 9.85182 9.85182 9.0952 10.8115 8.98134L11.5546 8.89315C11.6432 8.88263 11.6432 8.75408 11.5546 8.74356L10.8115 8.65538C9.85182 8.54152 9.0952 7.7849 8.98134 6.82525L8.89315 6.08207Z" fill="#F3003B"/>
<path d="M4.71093 22.3613C7.01974 24.7472 9.96223 27.1812 12.4366 29.0935L12.3428 28.3024C11.9873 25.3065 9.62516 22.9444 6.62918 22.5889L4.71093 22.3613Z" fill="#F3003B"/>
</svg>
