<svg width="138" height="126" viewBox="0 0 138 126" fill="none" xmlns="http://www.w3.org/2000/svg">
<path d="M110.733 106.237C110.771 105.921 111.229 105.921 111.267 106.237L111.581 108.889C111.988 112.313 114.687 115.012 118.111 115.419L120.763 115.733C121.079 115.771 121.079 116.229 120.763 116.267L118.111 116.581C114.687 116.988 111.988 119.687 111.581 123.111L111.267 125.763C111.229 126.079 110.771 126.079 110.733 125.763L110.419 123.111C110.012 119.687 107.313 116.988 103.889 116.581L101.237 116.267C100.921 116.229 100.921 115.771 101.237 115.733L103.889 115.419C107.313 115.012 110.012 112.313 110.419 108.889L110.733 106.237Z" fill="#B5002C"/>
<path d="M50.7331 0.237062C50.7707 -0.0790205 51.2293 -0.0790205 51.2669 0.237062L51.5815 2.8887C51.9878 6.31269 54.6873 9.01224 58.1113 9.41851L60.7629 9.73314C61.079 9.77067 61.079 10.2293 60.7629 10.2669L58.1113 10.5815C54.6873 10.9878 51.9878 13.6873 51.5815 17.1113L51.2669 19.7629C51.2293 20.079 50.7707 20.079 50.7331 19.7629L50.4185 17.1113C50.0122 13.6873 47.3127 10.9878 43.8887 10.5815L41.2371 10.2669C40.921 10.2293 40.921 9.77067 41.2371 9.73314L43.8887 9.41851C47.3127 9.01224 50.0122 6.31269 50.4185 2.8887L50.7331 0.237062Z" fill="#B5002C"/>
<path d="M22.2999 100.178C22.328 99.9407 22.672 99.9407 22.7002 100.178L22.9361 102.167C23.2408 104.735 25.2655 106.759 27.8335 107.064L29.8222 107.3C30.0593 107.328 30.0593 107.672 29.8222 107.7L27.8335 107.936C25.2655 108.241 23.2408 110.265 22.9361 112.833L22.7002 114.822C22.672 115.059 22.328 115.059 22.2999 114.822L22.0639 112.833C21.7592 110.265 19.7345 108.241 17.1665 107.936L15.1778 107.7C14.9407 107.672 14.9407 107.328 15.1778 107.3L17.1665 107.064C19.7345 106.759 21.7592 104.735 22.0639 102.167L22.2999 100.178Z" fill="#B5002C"/>
<path d="M77.2999 20.1778C77.328 19.9407 77.672 19.9407 77.7002 20.1778L77.9361 22.1665C78.2408 24.7345 80.2655 26.7592 82.8335 27.0639L84.8222 27.2999C85.0593 27.328 85.0593 27.672 84.8222 27.7002L82.8335 27.9361C80.2655 28.2408 78.2408 30.2655 77.9361 32.8335L77.7002 34.8222C77.672 35.0593 77.328 35.0593 77.2999 34.8222L77.0639 32.8335C76.7592 30.2655 74.7345 28.2408 72.1665 27.9361L70.1778 27.7002C69.9407 27.672 69.9407 27.328 70.1778 27.2999L72.1665 27.0639C74.7345 26.7592 76.7592 24.7345 77.0639 22.1665L77.2999 20.1778Z" fill="#B5002C"/>
<path d="M126.353 94.1304C126.374 93.9565 126.626 93.9565 126.647 94.1304L126.82 95.5888C127.043 97.472 128.528 98.9567 130.411 99.1802L131.87 99.3532C132.043 99.3739 132.043 99.6261 131.87 99.6468L130.411 99.8198C128.528 100.043 127.043 101.528 126.82 103.411L126.647 104.87C126.626 105.043 126.374 105.043 126.353 104.87L126.18 103.411C125.957 101.528 124.472 100.043 122.589 99.8198L121.13 99.6468C120.957 99.6261 120.957 99.3739 121.13 99.3532L122.589 99.1802C124.472 98.9567 125.957 97.472 126.18 95.5888L126.353 94.1304Z" fill="#B5002C"/>
<path d="M5.35322 41.1304C5.37387 40.9565 5.62613 40.9565 5.64678 41.1304L5.81982 42.5888C6.04327 44.472 7.52802 45.9567 9.4112 46.1802L10.8696 46.3532C11.0435 46.3739 11.0435 46.6261 10.8696 46.6468L9.4112 46.8198C7.52802 47.0433 6.04327 48.528 5.81982 50.4112L5.64678 51.8696C5.62613 52.0435 5.37387 52.0435 5.35322 51.8696L5.18018 50.4112C4.95673 48.528 3.47198 47.0433 1.58879 46.8198L0.130384 46.6468C-0.0434613 46.6261 -0.0434613 46.3739 0.130384 46.3532L1.58879 46.1802C3.47198 45.9567 4.95673 44.472 5.18018 42.5888L5.35322 41.1304Z" fill="#B5002C"/>
<path d="M132.353 35.1304C132.374 34.9565 132.626 34.9565 132.647 35.1304L132.82 36.5888C133.043 38.472 134.528 39.9567 136.411 40.1802L137.87 40.3532C138.043 40.3739 138.043 40.6261 137.87 40.6468L136.411 40.8198C134.528 41.0433 133.043 42.528 132.82 44.4112L132.647 45.8696C132.626 46.0435 132.374 46.0435 132.353 45.8696L132.18 44.4112C131.957 42.528 130.472 41.0433 128.589 40.8198L127.13 40.6468C126.957 40.6261 126.957 40.3739 127.13 40.3532L128.589 40.1802C130.472 39.9567 131.957 38.472 132.18 36.5888L132.353 35.1304Z" fill="#B5002C"/>
</svg>
