<svg width="16" height="16" viewBox="0 0 16 16" fill="none" xmlns="http://www.w3.org/2000/svg">
<path d="M14.7676 12.9141C14.3992 12.0414 13.8645 11.2487 13.1934 10.5801C12.5243 9.90962 11.7317 9.37504 10.8594 9.00589C10.8516 9.00198 10.8438 9.00003 10.836 8.99612C12.0528 8.11722 12.8438 6.68558 12.8438 5.07034C12.8438 2.39456 10.6758 0.226593 8.00005 0.226593C5.32427 0.226593 3.1563 2.39456 3.1563 5.07034C3.1563 6.68558 3.94731 8.11722 5.16411 8.99808C5.1563 9.00198 5.14849 9.00394 5.14067 9.00784C4.26567 9.37698 3.48052 9.90628 2.80669 10.5821C2.1362 11.2511 1.60162 12.0437 1.23247 12.916C0.869819 13.7701 0.674232 14.6857 0.656299 15.6133C0.655778 15.6342 0.659434 15.6549 0.667052 15.6743C0.674671 15.6937 0.686098 15.7114 0.700659 15.7263C0.71522 15.7413 0.732622 15.7531 0.751838 15.7612C0.771055 15.7693 0.791697 15.7735 0.812549 15.7735H1.98442C2.07036 15.7735 2.13872 15.7051 2.14067 15.6211C2.17974 14.1133 2.7852 12.7012 3.85552 11.6309C4.96294 10.5235 6.43364 9.91409 8.00005 9.91409C9.56645 9.91409 11.0372 10.5235 12.1446 11.6309C13.2149 12.7012 13.8204 14.1133 13.8594 15.6211C13.8614 15.7071 13.9297 15.7735 14.0157 15.7735H15.1875C15.2084 15.7735 15.229 15.7693 15.2483 15.7612C15.2675 15.7531 15.2849 15.7413 15.2994 15.7263C15.314 15.7114 15.3254 15.6937 15.333 15.6743C15.3407 15.6549 15.3443 15.6342 15.3438 15.6133C15.3243 14.6797 15.1309 13.7715 14.7676 12.9141ZM8.00005 8.42972C7.10356 8.42972 6.25981 8.08011 5.62505 7.44534C4.99028 6.81058 4.64067 5.96683 4.64067 5.07034C4.64067 4.17386 4.99028 3.33011 5.62505 2.69534C6.25981 2.06058 7.10356 1.71097 8.00005 1.71097C8.89653 1.71097 9.74028 2.06058 10.375 2.69534C11.0098 3.33011 11.3594 4.17386 11.3594 5.07034C11.3594 5.96683 11.0098 6.81058 10.375 7.44534C9.74028 8.08011 8.89653 8.42972 8.00005 8.42972Z" fill="#2B010B"/>
</svg>
