<svg width="20" height="20" viewBox="0 0 20 20" fill="none" xmlns="http://www.w3.org/2000/svg">
<path fill-rule="evenodd" clip-rule="evenodd" d="M1.95313 20C0.874444 20 0 19.1256 0 18.0469V1.95312C0 0.874444 0.874444 0 1.95313 0H18.0469C19.1256 0 20 0.874444 20 1.95312V18.0469C20 19.1256 19.1256 20 18.0469 20H1.95313ZM3.14476 1.17188H1.95313C1.52165 1.17188 1.17188 1.52165 1.17188 1.95312V4.70588H3.14476V1.17188ZM3.14476 5.88235V9.41176H1.17188V5.88235H3.14476ZM3.14476 10.5882H1.17188V14.1176H3.14476V10.5882ZM1.17188 18.0469V15.2941H3.14476V18.8281H1.95313C1.52165 18.8281 1.17188 18.4783 1.17188 18.0469ZM18.0469 1.17188H16.8552V4.70588H18.8281V1.95312C18.8281 1.52165 18.4783 1.17188 18.0469 1.17188ZM16.8552 9.41177V5.88235H18.8281V9.41177H16.8552ZM18.8281 10.5882H16.8552V14.1176H18.8281V10.5882ZM18.8281 15.2941V18.0469C18.8281 18.4783 18.4783 18.8281 18.0469 18.8281H16.8552V15.2941H18.8281ZM14.0518 10.3814C13.4581 11.3169 12.0332 12.4866 11.0458 13.2337C10.7707 13.442 10 13.9844 10 13.9844C10 13.9844 9.22929 13.442 8.95417 13.2337C7.9668 12.4866 6.54194 11.3169 5.94818 10.3814C5.50387 9.68254 5.35933 8.81668 5.55258 8.01162C5.96546 6.17776 8.25178 5.4284 9.67593 6.65734C9.75602 6.726 9.82986 6.80212 9.90564 6.88027C9.93656 6.91217 9.96784 6.94441 10 6.97661C10.0322 6.94441 10.0634 6.91217 10.0944 6.88028C10.1701 6.80212 10.244 6.726 10.3241 6.65734C11.7482 5.4284 14.0345 6.17776 14.4474 8.01162C14.6407 8.81668 14.4961 9.68254 14.0518 10.3814Z" fill="#B5002C"/>
</svg>
