<svg width="40" height="80" viewBox="0 0 40 80" fill="none" xmlns="http://www.w3.org/2000/svg">
<path fill-rule="evenodd" clip-rule="evenodd" d="M1.71875 0C0.855806 0 0.15625 0.699555 0.15625 1.5625V29.0625H0.172732C0.287216 31.3827 0.996621 33.6671 2.25581 35.6456C4.85608 39.7377 11.096 44.8544 15.42 48.1227C15.9222 48.5024 16.8015 49.136 17.6562 49.746V72.573L6.97897 77.888C5.94482 78.4028 6.31118 79.9609 7.46638 79.9609H32.5336C33.6888 79.9609 34.0552 78.4028 33.021 77.888L22.3438 72.5729V49.746C23.1985 49.136 24.0778 48.5024 24.58 48.1227C28.904 44.8544 35.1439 39.7377 37.7442 35.6456C39.0034 33.6671 39.7128 31.3827 39.8273 29.0625H39.8438V1.5625C39.8438 0.699555 39.1442 0 38.2812 0H1.71875ZM34.6704 32.3206C32.5206 35.6939 27.3616 39.9117 23.7866 42.6058C22.7905 43.3567 20 45.3125 20 45.3125C20 45.3125 17.2095 43.3567 16.2134 42.6058C12.6384 39.9117 7.47944 35.6939 5.32961 32.3206C3.72093 29.8005 3.19758 26.6783 3.89726 23.7753C5.39218 17.1625 13.6702 14.4604 18.8266 18.8919C19.1166 19.1394 19.384 19.4139 19.6584 19.6957C19.7703 19.8108 19.8836 19.927 20 20.0431C20.1165 19.927 20.2297 19.8108 20.3416 19.6958C20.616 19.4139 20.8834 19.1394 21.1734 18.8919C26.3298 14.4604 34.6079 17.1625 36.1027 23.7753C36.8024 26.6783 36.279 29.8005 34.6704 32.3206Z" fill="url(#paint0_linear_0_8)"/>
<path d="M23.7866 42.6058C27.3616 39.9117 32.5206 35.6939 34.6704 32.3206C36.279 29.8005 36.8024 26.6783 36.1027 23.7753C34.6079 17.1625 26.3298 14.4604 21.1734 18.8919C20.8834 19.1394 20.616 19.4139 20.3416 19.6958C20.2297 19.8108 20.1165 19.927 20 20.0431C19.8836 19.927 19.7703 19.8108 19.6584 19.6957C19.384 19.4139 19.1166 19.1394 18.8266 18.8919C13.6702 14.4604 5.39218 17.1625 3.89726 23.7753C3.19758 26.6783 3.72093 29.8005 5.32961 32.3206C7.47944 35.6939 12.6384 39.9117 16.2134 42.6058C17.2095 43.3567 20 45.3125 20 45.3125C20 45.3125 22.7905 43.3567 23.7866 42.6058Z" fill="url(#paint1_linear_0_8)"/>
<defs>
<linearGradient id="paint0_linear_0_8" x1="0.15625" y1="79.9609" x2="63.8422" y2="48.3513" gradientUnits="userSpaceOnUse">
<stop stop-color="#B5002C"/>
<stop offset="1" stop-color="#F3003B"/>
</linearGradient>
<linearGradient id="paint1_linear_0_8" x1="0.15625" y1="79.9609" x2="63.8422" y2="48.3513" gradientUnits="userSpaceOnUse">
<stop stop-color="#B5002C"/>
<stop offset="1" stop-color="#F3003B"/>
</linearGradient>
</defs>
</svg>
