<svg width="35" height="35" viewBox="0 0 35 35" fill="none" xmlns="http://www.w3.org/2000/svg">
<path fill-rule="evenodd" clip-rule="evenodd" d="M9.50195 0C9.12442 0 8.81836 0.306055 8.81836 0.683594V12.7148H8.82557C8.87566 13.7299 9.18602 14.7294 9.73692 15.5949C10.8745 17.3853 13.6045 19.6238 15.4962 21.0537C15.716 21.2198 16.1007 21.497 16.4746 21.7639V31.7507L11.8033 34.076C11.3509 34.3012 11.5111 34.9829 12.0165 34.9829H22.9835C23.4889 34.9829 23.6491 34.3012 23.1967 34.076L18.5254 31.7507V21.7639C18.8994 21.497 19.284 21.2198 19.5038 21.0537C21.3955 19.6238 24.1255 17.3853 25.2631 15.5949C25.814 14.7294 26.1243 13.7299 26.1744 12.7148H26.1816V0.683594C26.1816 0.306055 25.8756 0 25.498 0H9.50195ZM23.9183 14.1403C22.9777 15.6161 20.7207 17.4614 19.1567 18.64C18.7209 18.9685 17.5 19.8242 17.5 19.8242C17.5 19.8242 16.2792 18.9685 15.8434 18.64C14.2793 17.4614 12.0223 15.6161 11.0817 14.1403C10.3779 13.0377 10.1489 11.6717 10.4551 10.4017C11.1091 7.5086 14.7307 6.32642 16.9867 8.26519C17.1135 8.37351 17.2305 8.49359 17.3505 8.61688C17.3995 8.66721 17.4491 8.71806 17.5 8.76887C17.551 8.71806 17.6005 8.66721 17.6495 8.61689C17.7695 8.49359 17.8865 8.37351 18.0134 8.26519C20.2693 6.32642 23.8909 7.5086 24.545 10.4017C24.8511 11.6717 24.6221 13.0377 23.9183 14.1403Z" fill="#F3003B"/>
</svg>
