<svg xmlns="http://www.w3.org/2000/svg"><defs><filter id="b" x="-3.916" y="6.973" width="42.916" height="30.397" filterUnits="userSpaceOnUse" color-interpolation-filters="sRGB"><feFlood flood-opacity="0" result="BackgroundImageFix"/><feColorMatrix in="SourceAlpha" values="0 0 0 0 0 0 0 0 0 0 0 0 0 0 0 0 0 0 127 0" result="hardAlpha"/><feOffset dy="4"/><feGaussianBlur stdDeviation="2"/><feComposite in2="hardAlpha" operator="out"/><feColorMatrix values="0 0 0 0 0 0 0 0 0 0 0 0 0 0 0 0 0 0 0.25 0"/><feBlend in2="BackgroundImageFix" result="effect1_dropShadow_20_1086"/><feBlend in="SourceGraphic" in2="effect1_dropShadow_20_1086" result="shape"/></filter><clipPath id="a"><path fill="#fff" d="M0 0h35v35H0z"/></clipPath><linearGradient id="a" x1=".241" y1="64.912" x2="58.404" y2="-25.76" gradientUnits="userSpaceOnUse"><stop stop-color="#B5002C"/><stop offset="1" stop-color="#F3003B"/></linearGradient><filter id="a" x="-3.916" y=".973" width="42.916" height="30.397" filterUnits="userSpaceOnUse" color-interpolation-filters="sRGB"><feFlood flood-opacity="0" result="BackgroundImageFix"/><feColorMatrix in="SourceAlpha" values="0 0 0 0 0 0 0 0 0 0 0 0 0 0 0 0 0 0 127 0" result="hardAlpha"/><feOffset dy="4"/><feGaussianBlur stdDeviation="2"/><feComposite in2="hardAlpha" operator="out"/><feColorMatrix values="0 0 0 0 0 0 0 0 0 0 0 0 0 0 0 0 0 0 0.25 0"/><feBlend in2="BackgroundImageFix" result="effect1_dropShadow_20_1087"/><feBlend in="SourceGraphic" in2="effect1_dropShadow_20_1087" result="shape"/></filter><linearGradient id="a" y1="6.25" x2=".971" y2="-6.174" gradientUnits="userSpaceOnUse"><stop stop-color="#B5002C"/><stop offset="1" stop-color="#F3003B"/></linearGradient><linearGradient id="a" x1=".029" y1="61.874" x2="39.109" y2="-6.835" gradientUnits="userSpaceOnUse"><stop stop-color="#B5002C"/><stop offset="1" stop-color="#F3003B"/></linearGradient><linearGradient id="a" x1=".029" y1="45.874" x2="39.109" y2="-22.835" gradientUnits="userSpaceOnUse"><stop stop-color="#B5002C"/><stop offset="1" stop-color="#F3003B"/></linearGradient><linearGradient id="a" y1="80" x2="80" gradientUnits="userSpaceOnUse"><stop stop-color="#B5002C"/><stop offset="1" stop-color="#F3003B"/></linearGradient><linearGradient id="b" y1="80" x2="80" gradientUnits="userSpaceOnUse"><stop stop-color="#B5002C"/><stop offset="1" stop-color="#F3003B"/></linearGradient><linearGradient id="b" x1="113.462" y1="53.537" x2=".538" y2="60.463" gradientUnits="userSpaceOnUse"><stop stop-color="#B5002C"/><stop offset="1" stop-color="#F3003B"/></linearGradient><linearGradient id="c" x1="113.462" y1="53.537" x2=".538" y2="60.463" gradientUnits="userSpaceOnUse"><stop stop-color="#B5002C"/><stop offset="1" stop-color="#F3003B"/></linearGradient><clipPath id="a"><path fill="#fff" transform="rotate(-138.51 51.72 45.28)" d="M0 0h80v80H0z"/></clipPath><clipPath id="a"><path fill="#fff" d="M0 0h35v35H0z"/></clipPath><linearGradient id="a" x1="5.5" y1="75" x2="69.052" y2="-39.827" gradientUnits="userSpaceOnUse"><stop stop-color="#B5002C"/><stop offset="1" stop-color="#F3003B"/></linearGradient><linearGradient id="b" y1="92.157" x2="6.21" y2="64.882" gradientUnits="userSpaceOnUse"><stop stop-color="#B5002C"/><stop offset="1" stop-color="#F3003B"/></linearGradient><linearGradient id="c" y1="92.157" x2="6.21" y2="64.882" gradientUnits="userSpaceOnUse"><stop stop-color="#B5002C"/><stop offset="1" stop-color="#F3003B"/></linearGradient><linearGradient id="d" y1="92.157" x2="6.21" y2="64.882" gradientUnits="userSpaceOnUse"><stop stop-color="#B5002C"/><stop offset="1" stop-color="#F3003B"/></linearGradient><linearGradient id="e" y1="92.157" x2="6.21" y2="64.882" gradientUnits="userSpaceOnUse"><stop stop-color="#B5002C"/><stop offset="1" stop-color="#F3003B"/></linearGradient><linearGradient id="f" y1="92.157" x2="6.21" y2="64.882" gradientUnits="userSpaceOnUse"><stop stop-color="#B5002C"/><stop offset="1" stop-color="#F3003B"/></linearGradient><linearGradient id="a" y1="30" x2="25.421" y2="-15.931" gradientUnits="userSpaceOnUse"><stop stop-color="#B5002C"/><stop offset="1" stop-color="#F3003B"/></linearGradient><linearGradient id="a" x1=".156" y1="79.961" x2="63.842" y2="48.351" gradientUnits="userSpaceOnUse"><stop stop-color="#B5002C"/><stop offset="1" stop-color="#F3003B"/></linearGradient><linearGradient id="b" x1=".156" y1="79.961" x2="63.842" y2="48.351" gradientUnits="userSpaceOnUse"><stop stop-color="#B5002C"/><stop offset="1" stop-color="#F3003B"/></linearGradient></defs><symbol id="arrow back" viewBox="0 0 18 18"><path fill-rule="evenodd" clip-rule="evenodd" d="M16.875 9a.562.562 0 0 0-.563-.562H3.046l3.54-3.54a.563.563 0 0 0-.796-.796l-4.5 4.5a.562.562 0 0 0 0 .796l4.5 4.5a.563.563 0 0 0 .797-.796l-3.54-3.54h13.266A.563.563 0 0 0 16.875 9z" fill="#fff"/></symbol><symbol id="coffee" viewBox="0 0 20 14"><path fill-rule="evenodd" clip-rule="evenodd" d="M.048 1.375a.39.39 0 0 1 .39-.39h15.307a.39.39 0 0 1 .391.39v1.273c1.944-.606 4.02.974 3.855 3.063a3.63 3.63 0 0 1-1.266 2.517c-.866.736-2.505 1.45-3.817 1.949a7.806 7.806 0 0 1-6.585 3.606h-.462A7.813 7.813 0 0 1 .048 5.97V1.375zM16.136 5.97c0 .65-.08 1.283-.23 1.887l.036-.016c.763-.355 1.335-.69 1.645-.952v-.001c.378-.32.618-.797.65-1.29v-.013l.001-.012c.069-.865-.884-1.557-1.702-1.2h-.002l-.003.002a2.698 2.698 0 0 0-.19.099l-.162.087-.043.023V5.97zm-4.354 1.493c-.538.845-1.827 1.902-2.72 2.577-.25.188-.947.678-.947.678s-.698-.49-.947-.678c-.893-.675-2.183-1.732-2.72-2.577A2.796 2.796 0 0 1 4.09 5.32c.373-1.657 2.442-2.334 3.731-1.223.073.062.14.13.208.201l.086.087L8.2 4.3c.069-.07.135-.14.208-.201 1.289-1.11 3.358-.434 3.732 1.223.175.728.044 1.51-.358 2.142z" fill="#B5002C"/></symbol><symbol id="coffeecup" viewBox="0 0 35 35"><g clip-path="url(#a)"><path fill-rule="evenodd" clip-rule="evenodd" d="M.084 7.656c0-.377.307-.683.684-.683h26.787c.377 0 .683.306.683.683v2.229c3.403-1.062 7.034 1.703 6.746 5.36a6.35 6.35 0 0 1-2.216 4.405c-1.515 1.286-4.383 2.538-6.68 3.41a13.661 13.661 0 0 1-11.522 6.31h-.81C6.206 29.37.084 23.247.084 15.696v-8.04zm28.154 8.041A13.7 13.7 0 0 1 27.837 19l.062-.029c1.334-.621 2.336-1.206 2.878-1.666l.001-.001a3.275 3.275 0 0 0 1.136-2.258l.002-.021.001-.022c.12-1.514-1.548-2.724-2.979-2.101l-.004.002-.005.002c-.046.02-.113.054-.331.173-.079.043-.179.098-.284.153l-.076.04v2.425zm-7.62 2.613c-.94 1.479-3.197 3.328-4.76 4.51-.437.33-1.657 1.187-1.657 1.187s-1.22-.858-1.657-1.187c-1.563-1.182-3.82-3.031-4.76-4.51a4.893 4.893 0 0 1-.627-3.748c.654-2.9 4.275-4.085 6.53-2.141.127.108.244.229.364.352l.15.153.15-.153c.12-.123.236-.244.363-.352 2.255-1.944 5.876-.759 6.53 2.141a4.893 4.893 0 0 1-.626 3.748z" fill="#F3003B" filter="url(#b)"/></g></symbol><symbol id="coffee_cup" viewBox="0 0 100 65"><path fill-rule="evenodd" clip-rule="evenodd" d="M.241 2.875c0-1.079.875-1.953 1.953-1.953h76.533c1.079 0 1.953.874 1.953 1.953v6.367c9.721-3.032 20.096 4.867 19.274 15.313a18.143 18.143 0 0 1-6.33 12.587c-4.328 3.676-12.525 7.251-19.085 9.743-6.942 10.842-19.093 18.027-32.921 18.027h-2.314C17.73 64.912.24 47.424.24 25.85V2.875zm80.44 22.975c0 3.254-.399 6.414-1.148 9.436l.179-.083c3.812-1.776 6.675-3.447 8.221-4.76l.005-.004a9.356 9.356 0 0 0 3.245-6.45l.004-.062.005-.062c.34-4.325-4.423-7.783-8.51-6.002l-.014.005-.013.006c-.134.058-.325.155-.947.494l-.002.001c-.223.122-.509.278-.81.437l-.216.114v6.93zm-21.773 7.463c-2.687 4.226-9.134 9.511-13.602 12.886-1.245.941-4.733 3.392-4.733 3.392s-3.487-2.45-4.732-3.392c-4.468-3.375-10.915-8.66-13.602-12.886a13.979 13.979 0 0 1-1.79-10.707c1.868-8.285 12.214-11.67 18.658-6.118.362.31.697.654 1.04 1.007.14.144.28.29.426.435.146-.145.287-.29.427-.435.343-.353.677-.697 1.04-1.007 6.444-5.553 16.79-2.167 18.658 6.118a13.98 13.98 0 0 1-1.79 10.707z" fill="url(#a)"/></symbol><symbol id="cup" viewBox="0 0 35 29"><path fill-rule="evenodd" clip-rule="evenodd" d="M.084 1.656c0-.377.307-.683.684-.683h26.787c.377 0 .683.306.683.683v2.229c3.403-1.062 7.034 1.703 6.746 5.36a6.35 6.35 0 0 1-2.216 4.405c-1.515 1.286-4.383 2.538-6.68 3.41a13.661 13.661 0 0 1-11.522 6.31h-.81C6.206 23.37.084 17.247.084 9.696v-8.04zm28.154 8.041A13.7 13.7 0 0 1 27.837 13l.062-.029c1.334-.621 2.336-1.206 2.878-1.666l.001-.001a3.275 3.275 0 0 0 1.136-2.258l.002-.021.001-.022c.12-1.514-1.548-2.724-2.979-2.101l-.004.002-.005.002c-.046.02-.113.054-.331.173-.079.043-.179.098-.284.153l-.076.04v2.425zm-7.62 2.613c-.94 1.479-3.197 3.328-4.76 4.51-.437.33-1.657 1.187-1.657 1.187s-1.22-.858-1.657-1.187c-1.563-1.182-3.82-3.031-4.76-4.51a4.893 4.893 0 0 1-.627-3.748c.654-2.9 4.275-4.085 6.53-2.141.127.108.244.229.364.352l.15.153.15-.153a5.49 5.49 0 0 1 .363-.352c2.255-1.944 5.876-.759 6.53 2.141a4.893 4.893 0 0 1-.626 3.748z" fill="#F3003B" filter="url(#a)"/></symbol><symbol id="din2" viewBox="0 0 80 7"><path d="M1.563 0C.7 0 0 .7 0 1.563v3.125C0 5.55.7 6.25 1.563 6.25h76.874C79.3 6.25 80 5.55 80 4.687V1.563C80 .7 79.3 0 78.437 0H1.564z" fill="url(#a)"/></symbol><symbol id="dinner" viewBox="0 0 35 35"><path fill-rule="evenodd" clip-rule="evenodd" d="M16.133 8.545a1.367 1.367 0 1 1 2.734 0v1.078c8.801.68 15.778 7.87 16.12 16.763a.664.664 0 0 1-.67.684H.683a.664.664 0 0 1-.67-.684c.341-8.892 7.318-16.083 16.119-16.763V8.545zm6.865 10.952c-.81 1.274-2.756 2.867-4.104 3.885-.376.284-1.428 1.022-1.428 1.022s-1.052-.738-1.428-1.022c-1.348-1.018-3.293-2.611-4.104-3.885a4.212 4.212 0 0 1-.54-3.228c.563-2.498 3.685-3.518 5.63-1.845.109.094.21.198.313.304l.129.131.129-.131c.103-.106.204-.21.313-.304 1.945-1.673 5.066-.653 5.63 1.845a4.212 4.212 0 0 1-.54 3.228z" fill="#F3003B"/><path d="M.684 28.438A.684.684 0 0 0 0 29.12v1.367c0 .378.306.684.684.684h33.632a.684.684 0 0 0 .684-.684v-1.367a.684.684 0 0 0-.684-.683H.684z" fill="#F3003B"/></symbol><symbol id="dinner1" viewBox="0 0 80 80"><path fill-rule="evenodd" clip-rule="evenodd" d="M36.875 19.53a3.125 3.125 0 1 1 6.25 0v2.465c20.117 1.554 36.063 17.99 36.845 38.315.033.862-.67 1.564-1.532 1.564H1.561c-.862 0-1.565-.702-1.532-1.564.782-20.325 16.728-36.76 36.845-38.315V19.53zm15.691 25.034c-1.853 2.912-6.3 6.554-9.38 8.88-.859.648-3.264 2.337-3.264 2.337s-2.405-1.689-3.264-2.337c-3.081-2.326-7.528-5.968-9.38-8.88a9.627 9.627 0 0 1-1.235-7.378c1.288-5.71 8.423-8.043 12.867-4.217.25.214.48.451.717.694.097.1.194.2.295.3.1-.1.198-.2.294-.3.237-.243.467-.48.717-.694 4.444-3.826 11.58-1.493 12.868 4.217a9.627 9.627 0 0 1-1.235 7.378z" fill="url(#a)"/></symbol><symbol id="din_anim" viewBox="0 0 80 46"><path fill-rule="evenodd" clip-rule="evenodd" d="M36.875 3.53a3.125 3.125 0 1 1 6.25 0v2.465C63.242 7.549 79.188 23.985 79.97 44.31c.033.862-.67 1.564-1.533 1.564H1.562c-.863 0-1.565-.702-1.532-1.564C.812 23.985 16.758 7.55 36.875 5.995V3.53zm15.691 25.034c-1.853 2.912-6.3 6.554-9.38 8.88-.86.648-3.264 2.337-3.264 2.337s-2.405-1.689-3.264-2.337c-3.081-2.326-7.528-5.968-9.38-8.88a9.626 9.626 0 0 1-1.235-7.378c1.288-5.71 8.423-8.043 12.867-4.217.25.214.48.451.717.694.097.1.194.2.295.3.1-.1.198-.2.294-.3.237-.243.467-.48.717-.694 4.444-3.826 11.58-1.493 12.868 4.217a9.626 9.626 0 0 1-1.235 7.378z" fill="url(#a)"/></symbol><symbol id="film" viewBox="0 0 35 35"><path fill-rule="evenodd" clip-rule="evenodd" d="M3.418 35A3.418 3.418 0 0 1 0 31.582V3.418A3.418 3.418 0 0 1 3.418 0h28.164A3.418 3.418 0 0 1 35 3.418v28.164A3.418 3.418 0 0 1 31.582 35H3.418zM5.503 2.05H3.418c-.755 0-1.367.613-1.367 1.368v4.817h3.452V2.051zm0 8.244v6.177H2.051v-6.177h3.452zm0 8.235H2.051v6.177h3.452v-6.177zM2.051 31.582v-4.817h3.452v6.184H3.418a1.367 1.367 0 0 1-1.367-1.367zM31.582 2.051h-2.085v6.184h3.452V3.418c0-.755-.612-1.367-1.367-1.367zm-2.085 14.42v-6.177h3.452v6.177h-3.452zm3.452 2.058h-3.452v6.177h3.452v-6.177zm0 8.236v4.817c0 .755-.612 1.367-1.367 1.367h-2.085v-6.184h3.452zm-8.358-8.598c-1.04 1.638-3.533 3.685-5.26 4.992-.482.364-1.831 1.314-1.831 1.314s-1.349-.95-1.83-1.314c-1.728-1.307-4.222-3.354-5.26-4.991a5.422 5.422 0 0 1-.693-4.148c.723-3.209 4.724-4.52 7.216-2.37.14.12.27.254.402.39l.165.17.165-.17c.133-.136.262-.27.402-.39 2.492-2.15 6.494-.839 7.216 2.37a5.422 5.422 0 0 1-.692 4.148z" fill="#F3003B"/></symbol><symbol id="film_anim" viewBox="0 0 80 80"><path fill-rule="evenodd" clip-rule="evenodd" d="M7.813 80A7.813 7.813 0 0 1 0 72.187V7.814A7.813 7.813 0 0 1 7.813 0h64.374A7.813 7.813 0 0 1 80 7.813v64.374A7.813 7.813 0 0 1 72.187 80H7.814zm4.766-75.313H7.812a3.125 3.125 0 0 0-3.125 3.125v11.011h7.892V4.688zm0 18.842v14.118H4.687V23.53h7.892zm0 18.824H4.687V56.47h7.892V42.353zM4.687 72.187v-11.01h7.892v14.136H7.812a3.125 3.125 0 0 1-3.125-3.126zm67.5-67.5h-4.766v14.136h7.891V7.813c0-1.726-1.399-3.125-3.124-3.125zm-4.766 32.96V23.53h7.891v14.118h-7.891zm7.891 4.706h-7.891V56.47h7.891V42.353zm0 18.823v11.011c0 1.726-1.399 3.126-3.124 3.126H67.42V61.175h7.891zm-19.105-19.65c-2.375 3.742-8.074 8.42-12.024 11.409-1.1.833-4.183 3.002-4.183 3.002s-3.083-2.17-4.183-3.002c-3.95-2.989-9.65-7.667-12.024-11.41a12.393 12.393 0 0 1-1.583-9.478c1.652-7.336 10.797-10.333 16.494-5.418.32.275.615.58.919.892.123.128.248.257.377.386.129-.13.254-.258.377-.386.304-.313.599-.617.92-.892 5.696-4.915 14.841-1.918 16.493 5.418.773 3.22.194 6.683-1.583 9.479z" fill="url(#a)"/><path d="M44.183 52.935c3.95-2.989 9.65-7.667 12.024-11.41a12.393 12.393 0 0 0 1.583-9.478c-1.652-7.336-10.797-10.333-16.494-5.418-.32.275-.615.58-.919.892a35.47 35.47 0 0 1-.377.386 36.421 36.421 0 0 1-.377-.386c-.304-.313-.599-.617-.92-.892-5.696-4.915-14.841-1.918-16.493 5.418a12.393 12.393 0 0 0 1.583 9.479c2.375 3.742 8.074 8.42 12.024 11.409 1.1.833 4.183 3.002 4.183 3.002s3.083-2.17 4.183-3.002z" fill="url(#b)"/></symbol><symbol id="flo" viewBox="0 0 114 114"><g clip-path="url(#a)"><path fill-rule="evenodd" clip-rule="evenodd" d="M20.235 64.706a15.605 15.605 0 0 1 5.337-5.778 15.605 15.605 0 0 1-6.003-5.083c-5.55-7.688-.74-18.832 8.662-20.106a17.566 17.566 0 0 1 1.61-.123c.224-.01.45-.02.68-.035a45.36 45.36 0 0 0-.049-.678 17.519 17.519 0 0 1-.075-1.613c.116-9.488 10.588-15.623 18.897-11.055a15.605 15.605 0 0 1 5.778 5.337 15.604 15.604 0 0 1 5.083-6.003c7.689-5.55 18.832-.74 20.106 8.662.073.527.098 1.062.123 1.61.01.224.02.45.035.68.229-.015.455-.032.678-.049a17.52 17.52 0 0 1 1.613-.075c9.488.116 15.623 10.588 11.055 18.897a15.604 15.604 0 0 1-5.337 5.778 15.604 15.604 0 0 1 6.003 5.083c5.55 7.689.74 18.832-8.662 20.106a17.57 17.57 0 0 1-1.61.123c-.224.01-.45.02-.68.035.014.229.032.455.049.678.042.548.083 1.081.075 1.613-.116 9.488-10.588 15.623-18.897 11.055a15.606 15.606 0 0 1-5.778-5.337 15.605 15.605 0 0 1-5.083 6.003c-7.688 5.55-18.832.74-20.106-8.662a17.57 17.57 0 0 1-.123-1.61c-.01-.224-.02-.45-.035-.68-.229.014-.455.032-.678.049a17.59 17.59 0 0 1-1.613.075c-9.488-.116-15.623-10.588-11.055-18.897zm25.532-19.469c4.258-1.23 11.627-.959 16.565-.58 1.376.105 5.123.522 5.123.522s.872 3.667 1.144 5.02c.979 4.855 2.148 12.136 1.449 16.512a12.394 12.394 0 0 1-5.095 8.15c-6.097 4.4-14.933.587-15.943-6.87a13.917 13.917 0 0 1-.098-1.276 36.216 36.216 0 0 0-.027-.54c-.182.012-.361.026-.538.04a13.95 13.95 0 0 1-1.28.059c-7.523-.092-12.388-8.396-8.765-14.985a12.393 12.393 0 0 1 7.465-6.052z" fill="url(#b)"/><path d="M62.332 44.656c-4.938-.377-12.307-.648-16.565.581a12.393 12.393 0 0 0-7.465 6.052c-3.623 6.59 1.242 14.893 8.766 14.985.422.006.844-.026 1.279-.06.177-.013.356-.027.538-.038l.027.539c.02.435.04.858.098 1.276 1.01 7.457 9.846 11.27 15.943 6.87a12.394 12.394 0 0 0 5.095-8.15c.7-4.376-.47-11.657-1.449-16.512-.272-1.353-1.144-5.02-1.144-5.02s-3.747-.418-5.123-.523z" fill="url(#c)"/><circle cx="57" cy="57" r="15" transform="rotate(-138.51 57 57)" fill="#fff"/></g></symbol><symbol id="flower" viewBox="0 0 35 35"><g clip-path="url(#a)"><path fill-rule="evenodd" clip-rule="evenodd" d="M27.24 7.76a6.827 6.827 0 0 0 .075-3.441c-.911-4.047-5.957-5.701-9.1-2.989-.177.152-.34.32-.507.492-.068.07-.137.142-.208.213-.071-.071-.14-.143-.208-.213-.168-.173-.33-.34-.507-.492-3.143-2.712-8.189-1.058-9.1 2.989a6.827 6.827 0 0 0 .074 3.44 6.827 6.827 0 0 0-3.44-.074c-4.047.911-5.701 5.957-2.989 9.1.152.177.32.34.492.507.07.068.142.137.213.208-.071.071-.143.14-.213.208-.173.168-.34.33-.492.507-2.712 3.143-1.058 8.189 2.989 9.1a6.827 6.827 0 0 0 3.44-.074 6.828 6.828 0 0 0-.074 3.44c.911 4.047 5.957 5.701 9.1 2.989.177-.151.34-.32.507-.492.068-.07.137-.142.208-.213.071.071.14.143.208.213.168.172.33.34.507.492 3.143 2.712 8.189 1.058 9.1-2.989a6.827 6.827 0 0 0-.074-3.44 6.827 6.827 0 0 0 3.44.074c4.047-.911 5.701-5.957 2.989-9.1-.151-.177-.32-.34-.492-.507-.07-.068-.142-.137-.213-.208.071-.071.143-.14.213-.208.172-.168.34-.33.492-.507 2.712-3.143 1.058-8.189-2.989-9.1a6.828 6.828 0 0 0-3.44.074zM17.5 24.062a6.562 6.562 0 1 0 0-13.125 6.562 6.562 0 0 0 0 13.124z" fill="#F3003B"/></g></symbol><symbol id="Heart 6" viewBox="0 0 32 29"><path d="M19.693 26.255c3.486-2.733 8.517-7.01 10.614-10.431 1.569-2.556 2.08-5.723 1.397-8.667C30.246.45 22.173-2.29 17.144 2.204c-.282.251-.543.53-.81.815-.11.117-.22.235-.334.353a32.293 32.293 0 0 1-.333-.353 12.508 12.508 0 0 0-.811-.815C9.827-2.29 1.754.45.296 7.157c-.682 2.944-.172 6.11 1.397 8.666 2.096 3.422 7.128 7.7 10.614 10.432C13.28 27.016 16 29 16 29s2.721-1.984 3.693-2.745z" fill="#fff"/></symbol><symbol id="Heart" viewBox="0 0 22 20"><path d="M13.539 18.107c2.397-1.885 5.856-4.835 7.297-7.194a8.073 8.073 0 0 0 .96-5.977C20.795.31 15.245-1.58 11.787 1.52a8.599 8.599 0 0 0-.557.562c-.075.08-.15.162-.229.243l-.23-.243a8.601 8.601 0 0 0-.557-.562C6.756-1.58 1.206.31.203 4.936a8.072 8.072 0 0 0 .96 5.977c1.442 2.36 4.901 5.31 7.298 7.194C9.13 18.632 11 20 11 20s1.871-1.368 2.539-1.893z" fill="#B5002C"/></symbol><symbol id="Heart66" viewBox="0 0 68 57"><path d="M41.847 51.604c7.409-5.37 18.1-13.778 22.556-20.503 3.333-5.023 4.418-11.247 2.968-17.034C64.273.885 47.118-4.502 36.431 4.332c-.6.494-1.154 1.04-1.723 1.602-.232.23-.467.461-.708.693a66.506 66.506 0 0 1-.708-.693c-.569-.561-1.123-1.108-1.724-1.602C20.882-4.502 3.727.885.63 14.067-.821 19.854.264 26.077 3.597 31.1c4.456 6.725 15.147 15.133 22.556 20.503C28.217 53.101 34 57 34 57s5.783-3.899 7.847-5.396z" fill="#B5002C"/></symbol><symbol id="i" viewBox="0 0 8 18"><path d="M3.495 17.69L.192.996 4.407.163l3.302 16.693-4.214.833z" fill="#E30137"/></symbol><symbol id="loading" viewBox="0 0 70 70"><path fill-rule="evenodd" clip-rule="evenodd" d="M36.984 20.128L39.571.296a35.33 35.33 0 0 0-9.142 0l2.587 19.832a15.342 15.342 0 0 1 3.968 0z" fill="#3A010F"/><path d="M38.897 20.506c1.266.338 2.47.841 3.59 1.49L52.503 4.683a34.79 34.79 0 0 0-8.441-3.5l-5.165 19.322zM44.12 23.09a15.2 15.2 0 0 1 2.79 2.79L62.77 13.692a35.208 35.208 0 0 0-6.462-6.462L44.121 23.09zM48.005 27.513a14.79 14.79 0 0 1 1.489 3.59l19.322-5.165a34.789 34.789 0 0 0-3.5-8.44L48.005 27.512zM50 35c0 .682-.044 1.344-.128 1.984l19.832 2.587a35.341 35.341 0 0 0 0-9.142l-19.832 2.587c.084.64.128 1.302.128 1.984zM49.494 38.897a14.79 14.79 0 0 1-1.49 3.59l17.312 10.016a34.789 34.789 0 0 0 3.5-8.441l-19.322-5.165zM46.91 44.121a15.205 15.205 0 0 1-2.79 2.79l12.187 15.858a35.207 35.207 0 0 0 6.462-6.462L46.91 44.121zM42.487 48.005a14.79 14.79 0 0 1-3.59 1.489l5.165 19.322c2.99-.8 5.823-1.985 8.44-3.5L42.488 48.005zM35 50c-.682 0-1.344-.044-1.984-.128l-2.587 19.832a35.34 35.34 0 0 0 9.142 0l-2.587-19.832c-.64.084-1.302.128-1.984.128zM31.103 49.494a14.79 14.79 0 0 1-3.59-1.49L17.497 65.317a34.789 34.789 0 0 0 8.441 3.5l5.165-19.322zM25.879 46.91a15.212 15.212 0 0 1-2.79-2.789L7.231 56.307a35.208 35.208 0 0 0 6.462 6.462l12.186-15.858zM21.995 42.487a14.787 14.787 0 0 1-1.489-3.59L1.185 44.062a34.79 34.79 0 0 0 3.5 8.44l17.31-10.015zM0 35c0-1.55.1-3.075.296-4.571l19.832 2.587a15.342 15.342 0 0 0 0 3.968L.296 39.571A35.328 35.328 0 0 1 0 35zM20.506 31.103c.339-1.266.841-2.47 1.49-3.59L4.683 17.497a34.79 34.79 0 0 0-3.5 8.441l19.322 5.165zM23.09 25.879a15.212 15.212 0 0 1 2.789-2.79L13.692 7.231a35.21 35.21 0 0 0-6.461 6.462l15.858 12.186zM27.513 21.995a14.786 14.786 0 0 1 3.59-1.489L25.938 1.184a34.79 34.79 0 0 0-8.44 3.5l10.015 17.311z" fill="#3A010F"/></symbol><symbol id="location" viewBox="0 0 14 24"><path d="M7 2C3.13 2 0 5.13 0 9c0 5.25 7 13 7 13s7-7.75 7-13c0-3.87-3.13-7-7-7zM1 9c0-4 3-6 6-6s5.986 2 6 6c.014 4-4 9-6 11.88C5 18 1 13 1 9z" fill="#F3003B"/><path d="M7 11a2 2 0 1 0 0-4 2 2 0 0 0 0 4z" fill="#F3003B"/></symbol><symbol id="logo1" viewBox="0 0 142 102"><path fill-rule="evenodd" clip-rule="evenodd" d="M78.862 0C87.77 0 94 7.15 94 16.274c0 3.353-2.14 5.4-4.45 7.612l-.207.199C94.62 22.509 104.953 20 113 20c11 0 27.5 4.5 28 18.5s-16 22-30 21.5-29.5-6.5-37-11.5c-3.605-2.403-7.15-4.566-9.766-6.162l-.12-.073c-2.798 1.926-8.087 5.59-9.614 6.735a38.97 38.97 0 0 0-1.279 1.027C51.458 51.48 48.667 53.777 44 56.5c2.285-3.047 4.63-5.282 6.677-7.235.64-.611 1.252-1.194 1.823-1.765 2.4-2.4 6.333-6 8-7.5l.31-.175L38.5 26l-.18-.209c-5.052-2.135-12.645-4.6-18.82-4.291-1.07.054-2.047.165-2.934.324C18.808 23.602 22.304 26.625 24 29c2 2.8 5.167 8.833 6.5 11.5 0-.333.2-1.6 1-4 1-3 4.5-7 8.5-5s4 5 4 8.5-2.5 8-5 11c-1.84 2.208-5.514 6.279-7.518 8.473l.018.027c.833 1.667 2.5 5.9 2.5 9.5 0 4.5-3.5 6-5 6s-4-1-4-5.5c0-3.6 2.667-7.833 4-9.5l.255-.34c-.712-.787-2.01-2.212-4.255-4.66-.919-1.002-2.075-2.2-3.364-3.535C15.213 44.809 5.5 34.747 5.5 28.5c0-7.5 9-9 15-9 3.753 0 10.094 1.732 15.151 3.284-1.79-2.098-3.151-4.198-3.151-7.284C32.5 6.372 39.223.172 48.133.172c7.194 0 13.294 3.167 15.38 9.828 2.085-6.662 8.155-10 15.349-10zM30.859 57.578C39.058 47.9 41.105 44.443 41.5 40.5c.5-5-1.5-7.5-4-7.5-1.918 0-4.5 3.5-5 13H31c-1.5-3.333-3.5-9.5-7.5-15s-6.64-7.14-8.994-8.679C11 22.784 9.758 23.873 8.5 28.5c-1.258 4.627 8.5 15 16.5 23 3.519 3.519 5.183 5.284 5.858 6.078zM87 29c-6.8 2.4-16.5 8.333-20.5 11 .028.028.066.07.117.125.539.59 2.479 2.715 8.883 6.375 8.94 5.108 22 11.565 36 12 14 .435 27-8.5 27-20s-15.5-15-25.5-15S95.5 26 87 29zM50.624 16.684l.948.144v7.464l-.972.12V25h3.3v-.588l-1.044-.12V20.8h4.224v3.492l-.984.12V25h3.228v-.588l-.948-.12v-7.464l.948-.144v-.6h-3.216v.6l.972.144v3.228h-4.224v-3.228l1.032-.144v-.6h-3.264v.6zm11.425 7.884c.569.376 1.26.564 2.077.564.767 0 1.46-.192 2.075-.576.625-.392 1.113-.94 1.465-1.644.36-.712.54-1.536.54-2.472 0-1.392-.332-2.48-.996-3.264-.656-.792-1.608-1.188-2.856-1.188-.76 0-1.444.192-2.053.576-.608.376-1.087.912-1.44 1.608-.343.696-.515 1.504-.515 2.424 0 .904.144 1.7.432 2.388.288.68.712 1.208 1.272 1.584zm.397-6.936c.448-.68 1.06-1.02 1.835-1.02.792 0 1.404.34 1.837 1.02.431.672.648 1.612.648 2.82 0 1.304-.229 2.304-.684 3-.448.696-1.056 1.044-1.825 1.044-.784 0-1.396-.348-1.836-1.044-.431-.704-.648-1.656-.648-2.856 0-1.304.224-2.292.672-2.964zm7.568-.84l2.064-.072v7.572l-1.56.12V25h4.584v-.588l-1.704-.12V16.72l2.076.072.396 2.508h.756l-.144-3.216h-7.476l-.204 3.216h.792l.42-2.508z" fill="url(#a)"/><path d="M14.041 89.027a10.204 10.204 0 0 1-2.36 2.036c-1.035.668-1.975 1.003-2.82 1.003-.651 0-.977-.487-.977-1.46 0-.83.259-2.197.777-4.102A15.479 15.479 0 0 1 6.1 90.151c-1.305 1.337-2.532 2.006-3.683 2.006-.806 0-1.43-.375-1.87-1.125C.182 90.404 0 89.634 0 88.722c0-2.572.988-5.014 2.964-7.323 1.975-2.31 4.172-3.475 6.588-3.495 1.42 0 2.61.111 3.568.334-.096.506-.566 2.836-1.41 6.99-.191.81-.45 2.036-.777 3.677 0 .628.164.942.49.942.287 0 1.026-.506 2.215-1.52l.403.7zm-4.373-8.874c0-.264-.125-.477-.374-.639a1.18 1.18 0 0 0-.749-.273c-1.515 0-2.858.962-4.028 2.887-1.055 1.722-1.582 3.434-1.582 5.136 0 1.641.431 2.462 1.295 2.462 1.38 0 2.675-1.277 3.884-3.83 1.036-2.208 1.554-4.123 1.554-5.743z" fill="url(#b)"/><path d="M23.703 79.514c0 .325-.144.659-.432 1.003-.268.345-.566.517-.892.517-.326 0-.767-.284-1.323-.851-.537-.588-1.027-.881-1.468-.881a2.04 2.04 0 0 0-1.237.425c-.384.284-.575.658-.575 1.124 0 .629.46 1.297 1.38 2.006l2.59 1.945c.92.871 1.381 1.803 1.381 2.796 0 1.439-.594 2.584-1.784 3.434-1.035.75-2.263 1.125-3.683 1.125a6.218 6.218 0 0 1-2.445-.486c-.998-.426-1.496-1.024-1.496-1.793 0-1.074.374-1.611 1.122-1.611.403 0 .72.203.95.608.364.628.604.992.719 1.094.422.405 1.074.608 1.956.608 1.496 0 2.244-.568 2.244-1.702 0-.69-.46-1.398-1.38-2.128a204.815 204.815 0 0 1-2.59-1.853c-.92-.79-1.381-1.642-1.381-2.553 0-1.398.575-2.523 1.726-3.374 1.017-.77 2.215-1.155 3.597-1.155 2.014 0 3.02.568 3.02 1.702z" fill="url(#c)"/><path d="M31.734 89.118c-1.822 2.026-3.548 3.039-5.179 3.039-.326 0-.585-.172-.777-.517a1.805 1.805 0 0 1-.201-.972c.038-.973.326-2.553.863-4.741.595-2.452.94-4.083 1.036-4.893.077-.588-.067-.882-.432-.882-.23 0-.575.163-1.035.487-.307.263-.624.527-.95.79l-.403-.73a19.254 19.254 0 0 1 2.475-1.793c1.189-.729 2.08-1.094 2.675-1.094.73 0 1.065.375 1.008 1.125-.077 1.013-.422 2.745-1.036 5.197-.614 2.451-.96 4.163-1.036 5.136-.038.446.077.668.345.668.307 0 1.055-.506 2.244-1.52l.403.7z" fill="url(#d)"/><path d="M46.843 89.027a10.204 10.204 0 0 1-2.36 2.036c-1.035.668-1.975 1.003-2.82 1.003-.651 0-.977-.487-.977-1.46 0-.83.259-2.197.776-4.102a15.478 15.478 0 0 1-2.56 3.647c-1.305 1.337-2.532 2.006-3.683 2.006-.806 0-1.43-.375-1.87-1.125-.365-.628-.547-1.398-.547-2.31 0-2.572.988-5.014 2.964-7.323 1.975-2.31 4.172-3.475 6.589-3.495 1.419 0 2.608.111 3.567.334-.096.506-.566 2.836-1.41 6.99-.191.81-.45 2.036-.776 3.677 0 .628.163.942.489.942.287 0 1.026-.506 2.215-1.52l.403.7zm-4.373-8.874c0-.264-.125-.477-.374-.639a1.18 1.18 0 0 0-.749-.273c-1.515 0-2.858.962-4.028 2.887-1.055 1.722-1.582 3.434-1.582 5.136 0 1.641.431 2.462 1.295 2.462 1.38 0 2.675-1.277 3.884-3.83 1.036-2.208 1.554-4.123 1.554-5.743z" fill="url(#e)"/><path d="M63 89.027a10.205 10.205 0 0 1-2.36 2.036c-1.035.668-1.975 1.003-2.819 1.003-.307 0-.556-.172-.748-.517a2.011 2.011 0 0 1-.23-.973c0-.85.307-2.39.92-4.619.614-2.228.921-3.738.921-4.528 0-.608-.25-.912-.748-.912-.595 0-1.362.598-2.302 1.793a18.756 18.756 0 0 0-1.726 2.705 28.919 28.919 0 0 0-2.417 6.716l-2.388-.243c.383-1.742.767-3.474 1.15-5.197.442-2.046.778-3.819 1.008-5.318.077-.486-.058-.73-.403-.73-.268 0-.93.406-1.985 1.216l-.403-.668c2.32-1.986 4.009-2.979 5.064-2.979.595 0 .892.355.892 1.064 0 .588-.163 1.51-.49 2.766-.383 1.418-.603 2.37-.661 2.856a20.68 20.68 0 0 1 2.906-4.194c1.477-1.66 2.81-2.492 4-2.492 1.17 0 1.754.75 1.754 2.25 0 .709-.287 2.208-.863 4.497-.633 2.513-.978 4.052-1.036 4.62-.057.445.058.668.346.668.287 0 1.026-.506 2.215-1.52l.403.7z" fill="url(#f)"/><path d="M96.104 72.745c0 .536-.199 1.01-.597 1.422-.377.412-.815.619-1.312.619a1.57 1.57 0 0 1-1.134-.464 1.585 1.585 0 0 1-.447-1.145c0-.536.189-1.01.567-1.422.397-.413.855-.619 1.372-.619.418 0 .775.165 1.074.495.318.31.477.68.477 1.114zm.09 16.67c-1.89 2.061-3.68 3.092-5.37 3.092-.338 0-.606-.175-.805-.525a1.809 1.809 0 0 1-.21-.99c.04-.99.339-2.598.896-4.825.616-2.495.974-4.154 1.074-4.98.08-.597-.07-.896-.448-.896-.239 0-.596.165-1.074.495-.318.268-.646.536-.984.804l-.418-.742c.756-.64 1.611-1.248 2.566-1.825 1.233-.742 2.157-1.114 2.774-1.114.756 0 1.104.382 1.044 1.145-.08 1.03-.438 2.794-1.074 5.288-.636 2.495-.994 4.237-1.074 5.227-.04.454.08.68.358.68.318 0 1.094-.515 2.327-1.546l.418.712zM109.591 79.054c0 .453-.14.866-.418 1.237a1.31 1.31 0 0 1-1.074.526c-.079 0-.517-.083-1.312-.248-1.214.206-2.407 1.897-3.58 5.072-.497 1.279-1.144 3.433-1.939 6.464l-2.834-.37c.497-2.31.984-4.64 1.462-6.99.378-1.897.567-3.062.567-3.495 0-.578-.14-.866-.418-.866-.378 0-1.074.412-2.088 1.237l-.448-.712c.696-.618 1.532-1.237 2.506-1.855 1.233-.763 2.158-1.145 2.774-1.145.637 0 .925.34.865 1.021-.099 1.134-.387 2.959-.865 5.474.955-1.876 1.701-3.196 2.238-3.959 1.193-1.69 2.297-2.536 3.311-2.536.835 0 1.253.382 1.253 1.145zM118.821 78.435l-.268 1.237h-3.132c-.517 2.083-1.154 5.196-1.91 9.34-.099.743.16 1.114.776 1.114.617 0 1.551-.557 2.804-1.67l.418.68c-2.068 2.248-3.888 3.371-5.459 3.371-1.253 0-1.86-.7-1.82-2.103.06-2.082.776-5.66 2.148-10.732h-2.327l.269-1.237c1.412.02 2.177-.01 2.297-.093.278-.123.964-1.494 2.058-4.113l1.969-.03-.955 4.236h3.132zM129 79.641c0 .33-.149.67-.447 1.021-.279.35-.587.526-.925.526-.338 0-.796-.289-1.372-.866-.557-.598-1.064-.897-1.522-.897a2.14 2.14 0 0 0-1.282.433c-.398.289-.597.67-.597 1.144 0 .64.477 1.32 1.432 2.041l2.685 1.98c.954.886 1.431 1.835 1.431 2.845 0 1.464-.616 2.63-1.849 3.495-1.074.763-2.347 1.144-3.818 1.144-.895 0-1.74-.165-2.536-.495-1.034-.433-1.551-1.04-1.551-1.824 0-1.093.388-1.64 1.163-1.64.418 0 .746.207.985.62.377.638.626 1.01.745 1.113.438.412 1.114.618 2.029.618 1.551 0 2.327-.577 2.327-1.732 0-.7-.478-1.422-1.432-2.165-.895-.618-1.79-1.247-2.685-1.886-.955-.805-1.432-1.67-1.432-2.598 0-1.423.597-2.567 1.79-3.433 1.054-.784 2.297-1.176 3.729-1.176 2.088 0 3.132.578 3.132 1.732z" fill="#fff"/><path fill-rule="evenodd" clip-rule="evenodd" d="M83.134 68.23c-.155.453-.477.68-.966.68-.338 0-.726-.155-1.163-.465-.577-.37-.945-.587-1.104-.649-1.472.124-2.376 5.67-2.715 10.64h2.864l-.239 1.236h-2.863c-.458 2.949-.546 3.655-.948 8.485l-.06.713c-.354 4.29-.49 5.94-1.44 8.787-.13.186-.265.448-.416.739-.385.738-.866 1.664-1.58 2.019-.994.494-1.899.742-2.714.742-.438 0-.826-.103-1.164-.309-.417-.227-.626-.557-.626-.99 0-.97.358-1.454 1.074-1.454.298 0 .686.186 1.163.557.458.392.875.588 1.253.588 1.052 0 1.22-3.156 1.503-8.469.167-3.124.373-6.994.823-11.408h-2.417l.239-1.237h2.416l.11-.723c.425-2.814 1.085-7.177 1.978-8.462 1.432-2.062 3.202-3.093 5.31-3.093.438 0 .826.103 1.163.31.354.19.557.456.612.795-.26.06-.416.093-.467.101l.06.897.314-.03zm0 0a2.411 2.411 0 0 0 .093-.968c.436-.1 1.165-.272 2.188-.517 1.411-.33 2.217-.495 2.416-.495.258 0 .388.165.388.495 0 .267-.16 1.175-.478 2.721-.674 3.279-1.05 6.464-1.241 8.443-.175 1.808-.687 4.735-1.593 9.91l-.268 1.534c-.08.536.06.804.418.804.278 0 1.073-.536 2.386-1.608l.447.711c-.755.722-1.501 1.433-2.237 2.134-.934.742-1.87 1.113-2.804 1.113-.537 0-.925-.206-1.163-.618-.22-.35-.289-.804-.21-1.361.182-1.29.388-2.875.618-4.647.653-5.021 1.501-11.548 2.545-17.157.06-.35-.249-.526-.925-.526-.13 0-.323.011-.58.033z" fill="#fff"/><path d="M82.76 67.363l.06.897.314-.03a2.411 2.411 0 0 0 .093-.968c-.26.06-.416.093-.467.101z" fill="#fff"/></symbol><symbol id="logo_mini" viewBox="0 0 55 30"><path fill-rule="evenodd" clip-rule="evenodd" d="M29.345 0C32.908 0 35.4 2.86 35.4 6.51c0 1.34-.856 2.16-1.78 3.044l-.083.08C35.648 9.004 39.781 8 43 8c4.4 0 11 1.8 11.2 7.4.2 5.6-6.4 8.8-12 8.6-5.6-.2-11.8-2.6-14.8-4.6-1.442-.961-2.86-1.826-3.907-2.465l-.047-.029c-1.12.77-3.235 2.236-3.846 2.694-.142.107-.31.245-.512.41-.705.582-1.821 1.501-3.688 2.59.914-1.219 1.852-2.113 2.67-2.894h.001c.256-.244.5-.477.729-.706.96-.96 2.533-2.4 3.2-3l.124-.07L13.2 10.4a20.702 20.702 0 0 0-.072-.084C11.108 9.462 8.07 8.476 5.6 8.6a9.294 9.294 0 0 0-1.174.13c.897.711 2.295 1.92 2.974 2.87.8 1.12 2.067 3.533 2.6 4.6 0-.133.08-.64.4-1.6.4-1.2 1.8-2.8 3.4-2 1.6.8 1.6 2 1.6 3.4s-1 3.2-2 4.4c-.736.883-2.206 2.512-3.007 3.39l.007.01c.333.667 1 2.36 1 3.8 0 1.8-1.4 2.4-2 2.4-.6 0-1.6-.4-1.6-2.2 0-1.44 1.067-3.133 1.6-3.8l.102-.136c-.285-.315-.804-.885-1.702-1.864a81.76 81.76 0 0 0-1.346-1.414C3.885 17.924 0 13.899 0 11.4c0-3 3.6-3.6 6-3.6 1.501 0 4.038.693 6.06 1.314-.716-.84-1.26-1.68-1.26-2.914 0-3.651 2.689-6.131 6.253-6.131 2.878 0 5.318 1.267 6.152 3.931.834-2.665 3.262-4 6.14-4zM10.143 23.031c3.28-3.87 4.1-5.254 4.257-6.831.2-2-.6-3-1.6-3-.767 0-1.8 1.4-2 5.2h-.6c-.6-1.333-1.4-3.8-3-6S4.544 9.544 3.602 8.929C2.2 9.114 1.703 9.549 1.2 11.4c-.503 1.85 3.4 6 6.6 9.2 1.408 1.407 2.073 2.114 2.343 2.431zM32.6 11.6c-2.72.96-6.6 3.333-8.2 4.4l.047.05c.215.236.991 1.086 3.553 2.55 3.576 2.043 8.8 4.626 14.4 4.8 5.6.174 10.8-3.4 10.8-8s-6.2-6-10.2-6c-4 0-7 1-10.4 2.2zM18.05 6.674l.379.057v2.986l-.389.048V10h1.32v-.235l-.418-.048V8.32h1.69v1.397l-.394.048V10h1.292v-.235l-.38-.048V6.73l.38-.057v-.24h-1.287v.24l.389.057v1.291h-1.69v-1.29l.413-.058v-.24H18.05v.24zm4.57 3.153c.227.15.504.226.83.226a1.537 1.537 0 0 0 1.416-.888c.144-.285.216-.615.216-.989 0-.557-.133-.992-.398-1.306-.263-.316-.643-.475-1.143-.475-.304 0-.577.077-.82.23-.244.151-.436.365-.576.644a2.162 2.162 0 0 0-.207.97c0 .361.058.68.173.955.115.272.285.483.509.633zm.158-2.774c.18-.272.424-.408.735-.408.316 0 .561.136.734.408.173.269.26.645.26 1.128 0 .521-.092.921-.274 1.2-.18.278-.423.417-.73.417-.314 0-.558-.139-.734-.417-.173-.282-.26-.663-.26-1.143 0-.521.09-.916.27-1.185zm3.027-.336l.826-.029v3.029l-.624.048V10h1.834v-.235l-.682-.048V6.688l.83.029.159 1.003h.302l-.057-1.286h-2.99L25.32 7.72h.316l.168-1.003z" fill="url(#a)"/></symbol><symbol id="p" viewBox="0 0 20 22"><path d="M7.697 14.238l-1.02-3.025 3.182-1.075a2.59 2.59 0 0 0 .992-.588c.277-.28.46-.612.55-.997.09-.384.055-.812-.103-1.282-.159-.47-.39-.83-.695-1.082a1.852 1.852 0 0 0-1.042-.46 2.394 2.394 0 0 0-1.153.112L5.225 6.916 4.203 3.892l3.888-1.314c1.031-.348 2.035-.45 3.012-.308a5.03 5.03 0 0 1 2.578 1.106c.74.594 1.295 1.437 1.664 2.528.358 1.061.428 2.068.21 3.02a5.032 5.032 0 0 1-1.38 2.442c-.695.69-1.559 1.21-2.59 1.558l-3.888 1.314zM6.42 21.104L.974 4.982l4.07-1.375L10.49 19.73l-4.07 1.375z" fill="#E30137"/></symbol><symbol id="pizza" viewBox="0 0 35 35"><path fill-rule="evenodd" clip-rule="evenodd" d="M31.72 3.892c-4.457-1.757-9.505-2.725-14.22-2.725-4.852 0-9.907.952-14.24 2.682-.47.19-.85.355-1.148.492-.547.25-.74.888-.47 1.426l.711 1.417c.277.552.935.793 1.503.55l1.854-.795c3.515-1.395 7.454-2.12 11.829-2.12 4.388 0 8.25.702 11.811 2.15l1.795.766a1.167 1.167 0 0 0 1.501-.55l.691-1.377c.278-.555.065-1.213-.505-1.459-.293-.126-.66-.278-1.113-.457zm-1.843 4.32c-3.678-1.512-8.203-2.379-12.42-2.379A33.76 33.76 0 0 0 5.037 8.215l-.494.23c-.578.271-.831.955-.57 1.537.515 1.14 1.065 2.363 1.322 2.935l11.122 21.258a1.167 1.167 0 0 0 2.07-.007l12.437-24.152a1.167 1.167 0 0 0-.583-1.61l-.45-.189-.013-.006zm-16.236 6.402c.763-.55 1.863-1.41 2.322-2.098a2.188 2.188 0 0 0 .306-1.743c-.32-1.35-2.085-1.9-3.185-.996a2.64 2.64 0 0 0-.178.164l-.073.07a6.914 6.914 0 0 1-.073-.07 2.618 2.618 0 0 0-.177-.164c-1.1-.904-2.866-.353-3.185.996-.15.592-.038 1.23.306 1.743.458.688 1.559 1.549 2.321 2.098.213.154.808.553.808.553s.595-.4.808-.553zm11.655 1.402c-.458.688-1.559 1.549-2.322 2.099-.212.153-.807.552-.807.552s-.596-.4-.808-.553c-.763-.55-1.864-1.41-2.322-2.098a2.188 2.188 0 0 1-.306-1.743c.32-1.35 2.085-1.9 3.185-.996.062.05.12.106.178.164l.073.07a7.13 7.13 0 0 0 .072-.07c.059-.058.116-.114.178-.164 1.1-.904 2.866-.353 3.185.996.15.592.037 1.23-.306 1.743zm-4.666 8.167c-.46.688-1.56 1.549-2.322 2.098a46.74 46.74 0 0 1-.808.552s-.595-.399-.808-.552c-.763-.55-1.863-1.41-2.322-2.098a2.188 2.188 0 0 1-.305-1.743c.319-1.35 2.085-1.9 3.185-.997.061.05.119.107.177.164l.073.071a7.12 7.12 0 0 0 .073-.07c.058-.058.115-.114.177-.165 1.1-.904 2.866-.353 3.185.997.15.592.038 1.229-.305 1.743z" fill="#F3003B"/></symbol><symbol id="Soft Star" viewBox="0 0 39 39"><path d="M18.98.462c.073-.616.967-.616 1.04 0l.614 5.171a14.549 14.549 0 0 0 12.733 12.733l5.17.614c.617.073.617.967 0 1.04l-5.17.614a14.549 14.549 0 0 0-12.733 12.733l-.614 5.17c-.073.617-.967.617-1.04 0l-.614-5.17A14.549 14.549 0 0 0 5.633 20.634l-5.17-.614c-.617-.073-.617-.967 0-1.04l5.17-.614A14.549 14.549 0 0 0 18.366 5.633l.614-5.17z" fill="#fff"/></symbol><symbol id="Soft Star12323" viewBox="0 0 20 20"><path d="M9.733.237c.038-.316.496-.316.534 0l.315 2.652a7.46 7.46 0 0 0 6.53 6.53l2.65.314c.317.038.317.496 0 .534l-2.65.315a7.46 7.46 0 0 0-6.53 6.53l-.315 2.65c-.038.317-.496.317-.534 0l-.314-2.65a7.46 7.46 0 0 0-6.53-6.53l-2.652-.315c-.316-.038-.316-.496 0-.534L2.89 9.42a7.46 7.46 0 0 0 6.53-6.53L9.733.237z" fill="#B5002C"/></symbol><symbol id="Spinner" viewBox="0 0 100 100" preserveAspectRatio="xMidYMid"><rect x="47" y="24" rx="3" ry="6" width="6" height="12" fill="#fe718d"><animate attributeName="opacity" values="1;0" keyTimes="0;1" dur="1s" begin="-0.9166666666666666s" repeatCount="indefinite"/></rect><rect x="47" y="24" rx="3" ry="6" width="6" height="12" fill="#fe718d" transform="rotate(30 50 50)"><animate attributeName="opacity" values="1;0" keyTimes="0;1" dur="1s" begin="-0.8333333333333334s" repeatCount="indefinite"/></rect><rect x="47" y="24" rx="3" ry="6" width="6" height="12" fill="#fe718d" transform="rotate(60 50 50)"><animate attributeName="opacity" values="1;0" keyTimes="0;1" dur="1s" begin="-0.75s" repeatCount="indefinite"/></rect><rect x="47" y="24" rx="3" ry="6" width="6" height="12" fill="#fe718d" transform="rotate(90 50 50)"><animate attributeName="opacity" values="1;0" keyTimes="0;1" dur="1s" begin="-0.6666666666666666s" repeatCount="indefinite"/></rect><rect x="47" y="24" rx="3" ry="6" width="6" height="12" fill="#fe718d" transform="rotate(120 50 50)"><animate attributeName="opacity" values="1;0" keyTimes="0;1" dur="1s" begin="-0.5833333333333334s" repeatCount="indefinite"/></rect><rect x="47" y="24" rx="3" ry="6" width="6" height="12" fill="#fe718d" transform="rotate(150 50 50)"><animate attributeName="opacity" values="1;0" keyTimes="0;1" dur="1s" begin="-0.5s" repeatCount="indefinite"/></rect><rect x="47" y="24" rx="3" ry="6" width="6" height="12" fill="#fe718d" transform="rotate(180 50 50)"><animate attributeName="opacity" values="1;0" keyTimes="0;1" dur="1s" begin="-0.4166666666666667s" repeatCount="indefinite"/></rect><rect x="47" y="24" rx="3" ry="6" width="6" height="12" fill="#fe718d" transform="rotate(210 50 50)"><animate attributeName="opacity" values="1;0" keyTimes="0;1" dur="1s" begin="-0.3333333333333333s" repeatCount="indefinite"/></rect><rect x="47" y="24" rx="3" ry="6" width="6" height="12" fill="#fe718d" transform="rotate(240 50 50)"><animate attributeName="opacity" values="1;0" keyTimes="0;1" dur="1s" begin="-0.25s" repeatCount="indefinite"/></rect><rect x="47" y="24" rx="3" ry="6" width="6" height="12" fill="#fe718d" transform="rotate(270 50 50)"><animate attributeName="opacity" values="1;0" keyTimes="0;1" dur="1s" begin="-0.16666666666666666s" repeatCount="indefinite"/></rect><rect x="47" y="24" rx="3" ry="6" width="6" height="12" fill="#fe718d" transform="rotate(300 50 50)"><animate attributeName="opacity" values="1;0" keyTimes="0;1" dur="1s" begin="-0.08333333333333333s" repeatCount="indefinite"/></rect><rect x="47" y="24" rx="3" ry="6" width="6" height="12" fill="#fe718d" transform="rotate(330 50 50)"><animate attributeName="opacity" values="1;0" keyTimes="0;1" dur="1s" begin="0s" repeatCount="indefinite"/></rect></symbol><symbol id="star" viewBox="0 0 35 35"><path fill-rule="evenodd" clip-rule="evenodd" d="M33.148 18.875c-2.293 3.608-7.796 8.12-11.609 11.001-1.063.803-4.039 2.895-4.039 2.895s-2.976-2.092-4.04-2.895l-.263-.2.163-1.374a6.528 6.528 0 0 1 5.714-5.713l2.32-.275c.277-.033.277-.435 0-.467l-2.32-.276a6.528 6.528 0 0 1-5.714-5.713l-.275-2.32c-.033-.277-.434-.277-.467 0l-.275 2.32a6.528 6.528 0 0 1-5.714 5.713l-2.32.276a.256.256 0 0 0-.07.018c-.958-1.029-1.784-2.04-2.387-2.99a11.936 11.936 0 0 1-1.528-9.14C1.918 2.662 10.748-.228 16.248 4.512c.31.265.595.558.888.86.119.123.24.247.364.371.124-.124.245-.248.364-.371.293-.302.578-.595.888-.86 5.5-4.74 14.33-1.85 15.924 5.223a11.936 11.936 0 0 1-1.528 9.14zM25.012 8.058c.02-.171.268-.171.288 0l.17 1.432a4.029 4.029 0 0 0 3.527 3.526l1.432.17c.17.02.17.268 0 .288l-1.432.17a4.03 4.03 0 0 0-3.527 3.526l-.17 1.432c-.02.171-.268.171-.288 0l-.17-1.432a4.03 4.03 0 0 0-3.526-3.526l-1.432-.17c-.17-.02-.17-.268 0-.288l1.432-.17a4.029 4.029 0 0 0 3.526-3.526l.17-1.432zM8.893 6.082c-.01-.089-.139-.089-.15 0l-.088.743a2.091 2.091 0 0 1-1.83 1.83l-.743.089c-.089.01-.089.139 0 .15l.743.087c.96.114 1.717.87 1.83 1.83l.089.744c.01.088.139.088.15 0l.087-.743c.114-.96.87-1.717 1.83-1.83l.744-.089c.088-.01.088-.139 0-.15l-.743-.088a2.091 2.091 0 0 1-1.83-1.83l-.089-.743z" fill="#F3003B"/><path d="M4.71 22.361c2.31 2.386 5.252 4.82 7.727 6.732l-.094-.79a6.528 6.528 0 0 0-5.714-5.714l-1.918-.228z" fill="#F3003B"/></symbol><symbol id="stars" viewBox="0 0 20 18"><path fill-rule="evenodd" clip-rule="evenodd" d="M18.942 9.786c-1.31 2.062-4.455 4.64-6.634 6.286A133.78 133.78 0 0 1 10 17.727s-1.7-1.196-2.308-1.655l-.15-.114.093-.785a3.73 3.73 0 0 1 3.264-3.265l1.326-.157c.158-.02.158-.248 0-.267l-1.326-.158a3.73 3.73 0 0 1-3.264-3.264l-.158-1.326c-.019-.158-.248-.158-.267 0l-.157 1.326a3.73 3.73 0 0 1-3.265 3.264l-1.326.158a.147.147 0 0 0-.04.01c-.547-.588-1.02-1.166-1.364-1.708a6.82 6.82 0 0 1-.873-5.223C1.096.52 6.142-1.13 9.285 1.578c.177.152.34.32.507.492l.208.212.208-.212c.168-.173.33-.34.507-.492 3.143-2.708 8.189-1.057 9.1 2.985a6.82 6.82 0 0 1-.873 5.223zm-4.65-6.182c.012-.097.154-.097.165 0l.097.819a2.302 2.302 0 0 0 2.016 2.015l.818.097c.097.011.097.153 0 .165l-.819.097a2.302 2.302 0 0 0-2.015 2.015l-.097.818c-.011.098-.153.098-.164 0l-.097-.818a2.302 2.302 0 0 0-2.015-2.015l-.819-.097c-.097-.012-.097-.154 0-.165l.819-.097a2.302 2.302 0 0 0 2.015-2.015l.097-.819zm-9.21-1.129c-.006-.05-.08-.05-.086 0l-.05.425c-.065.549-.497.98-1.046 1.046l-.425.05c-.05.006-.05.08 0 .086l.425.05c.549.065.98.498 1.046 1.046l.05.425c.006.05.08.05.086 0l.05-.425c.065-.548.498-.98 1.046-1.046l.425-.05c.05-.006.05-.08 0-.086l-.425-.05A1.195 1.195 0 0 1 5.132 2.9l-.05-.425z" fill="#B5002C"/><path d="M2.692 11.778c1.32 1.363 3 2.754 4.415 3.847l-.054-.452a3.73 3.73 0 0 0-3.265-3.265l-1.096-.13z" fill="#B5002C"/></symbol><symbol id="stars22" viewBox="0 0 138 126"><path d="M110.733 106.237c.038-.316.496-.316.534 0l.314 2.652a7.463 7.463 0 0 0 6.53 6.53l2.652.314c.316.038.316.496 0 .534l-2.652.314a7.463 7.463 0 0 0-6.53 6.53l-.314 2.652c-.038.316-.496.316-.534 0l-.314-2.652a7.463 7.463 0 0 0-6.53-6.53l-2.652-.314c-.316-.038-.316-.496 0-.534l2.652-.314a7.463 7.463 0 0 0 6.53-6.53l.314-2.652zM50.733.237c.038-.316.496-.316.534 0l.314 2.652a7.46 7.46 0 0 0 6.53 6.53l2.652.314c.316.038.316.496 0 .534l-2.652.315a7.46 7.46 0 0 0-6.53 6.53l-.314 2.65c-.038.317-.496.317-.534 0l-.314-2.65a7.46 7.46 0 0 0-6.53-6.53l-2.652-.315c-.316-.038-.316-.496 0-.534l2.652-.314a7.46 7.46 0 0 0 6.53-6.53l.314-2.652zM22.3 100.178c.028-.237.372-.237.4 0l.236 1.989a5.596 5.596 0 0 0 4.898 4.897l1.988.236c.237.028.237.372 0 .4l-1.988.236a5.596 5.596 0 0 0-4.898 4.897l-.236 1.989c-.028.237-.372.237-.4 0l-.236-1.989a5.596 5.596 0 0 0-4.898-4.897l-1.988-.236c-.237-.028-.237-.372 0-.4l1.988-.236a5.596 5.596 0 0 0 4.898-4.897l.236-1.989zM77.3 20.178c.028-.237.372-.237.4 0l.236 1.988a5.596 5.596 0 0 0 4.897 4.898l1.99.236c.236.028.236.372 0 .4l-1.99.236a5.596 5.596 0 0 0-4.897 4.898l-.236 1.988c-.028.237-.372.237-.4 0l-.236-1.989a5.596 5.596 0 0 0-4.897-4.897l-1.99-.236c-.236-.028-.236-.372 0-.4l1.99-.236a5.596 5.596 0 0 0 4.897-4.898l.236-1.988zM126.353 94.13c.021-.173.273-.173.294 0l.173 1.459a4.103 4.103 0 0 0 3.591 3.591l1.459.173c.173.02.173.273 0 .294l-1.459.173a4.103 4.103 0 0 0-3.591 3.591l-.173 1.459c-.021.173-.273.173-.294 0l-.173-1.459a4.103 4.103 0 0 0-3.591-3.591l-1.459-.173c-.173-.02-.173-.273 0-.294l1.459-.173a4.103 4.103 0 0 0 3.591-3.591l.173-1.459zM5.353 41.13c.02-.174.273-.174.294 0l.173 1.459A4.104 4.104 0 0 0 9.41 46.18l1.459.173c.174.02.174.273 0 .294l-1.459.173A4.104 4.104 0 0 0 5.82 50.41l-.173 1.459c-.02.174-.273.174-.294 0L5.18 50.41A4.104 4.104 0 0 0 1.59 46.82L.13 46.647c-.173-.02-.173-.273 0-.294l1.459-.173A4.104 4.104 0 0 0 5.18 42.59l.173-1.459zM132.353 35.13c.021-.174.273-.174.294 0l.173 1.459a4.103 4.103 0 0 0 3.591 3.591l1.459.173c.173.02.173.273 0 .294l-1.459.173a4.103 4.103 0 0 0-3.591 3.591l-.173 1.459c-.021.174-.273.174-.294 0l-.173-1.459a4.103 4.103 0 0 0-3.591-3.591l-1.459-.173c-.173-.02-.173-.273 0-.294l1.459-.173a4.103 4.103 0 0 0 3.591-3.591l.173-1.459z" fill="#B5002C"/></symbol><symbol id="user" viewBox="0 0 16 16"><path d="M14.768 12.914a7.305 7.305 0 0 0-1.575-2.334 7.337 7.337 0 0 0-2.334-1.574l-.023-.01A4.843 4.843 0 0 0 8 .226a4.843 4.843 0 0 0-2.836 8.772l-.023.01c-.875.369-1.66.898-2.334 1.574a7.336 7.336 0 0 0-2.15 5.031.156.156 0 0 0 .156.16h1.171a.156.156 0 0 0 .157-.152 5.823 5.823 0 0 1 1.715-3.99A5.82 5.82 0 0 1 8 9.914a5.82 5.82 0 0 1 4.145 1.717 5.823 5.823 0 0 1 1.714 3.99c.002.086.07.152.157.152h1.171a.157.157 0 0 0 .157-.16 7.277 7.277 0 0 0-.576-2.699zM8 8.43c-.896 0-1.74-.35-2.375-.985a3.338 3.338 0 0 1-.984-2.375c0-.896.35-1.74.984-2.375A3.338 3.338 0 0 1 8 1.711c.897 0 1.74.35 2.375.984.635.635.984 1.479.984 2.375 0 .897-.35 1.74-.984 2.375A3.337 3.337 0 0 1 8 8.43z" fill="#2B010B"/></symbol><symbol id="video" viewBox="0 0 20 20"><path fill-rule="evenodd" clip-rule="evenodd" d="M1.953 20A1.953 1.953 0 0 1 0 18.047V1.953C0 .874.874 0 1.953 0h16.094C19.126 0 20 .874 20 1.953v16.094A1.953 1.953 0 0 1 18.047 20H1.953zM3.145 1.172H1.953a.781.781 0 0 0-.781.781v2.753h1.973V1.172zm0 4.71v3.53H1.172v-3.53h1.973zm0 4.706H1.172v3.53h1.973v-3.53zm-1.973 7.459v-2.753h1.973v3.534H1.953a.781.781 0 0 1-.781-.781zM18.047 1.172h-1.192v3.534h1.973V1.953a.781.781 0 0 0-.781-.781zm-1.192 8.24v-3.53h1.973v3.53h-1.973zm1.973 1.176h-1.973v3.53h1.973v-3.53zm0 4.706v2.753c0 .431-.35.781-.781.781h-1.192v-3.534h1.973zm-4.776-4.913c-.594.936-2.019 2.106-3.006 2.853-.275.208-1.046.75-1.046.75s-.77-.542-1.046-.75c-.987-.747-2.412-1.917-3.006-2.853a3.098 3.098 0 0 1-.395-2.37c.412-1.833 2.699-2.583 4.123-1.354.08.069.154.145.23.223l.094.097.094-.097c.076-.078.15-.154.23-.223 1.424-1.229 3.71-.48 4.123 1.355.194.805.05 1.67-.395 2.37z" fill="#B5002C"/></symbol><symbol id="wine" viewBox="0 0 35 35"><path fill-rule="evenodd" clip-rule="evenodd" d="M9.502 0a.684.684 0 0 0-.684.684v12.03h.008c.05 1.016.36 2.015.91 2.88 1.138 1.791 3.868 4.03 5.76 5.46.22.166.605.443.979.71v9.987l-4.672 2.325c-.452.225-.292.907.213.907h10.967c.506 0 .666-.682.214-.907l-4.672-2.325v-9.987c.374-.267.759-.544.979-.71 1.891-1.43 4.621-3.669 5.76-5.46.55-.865.86-1.864.91-2.88h.008V.685A.684.684 0 0 0 25.498 0H9.502zm14.416 14.14c-.94 1.476-3.197 3.321-4.761 4.5-.436.328-1.657 1.184-1.657 1.184s-1.22-.856-1.657-1.184c-1.564-1.179-3.82-3.024-4.761-4.5a4.87 4.87 0 0 1-.627-3.738c.654-2.893 4.276-4.076 6.532-2.137.127.109.244.229.364.352l.149.152c.051-.05.1-.102.15-.152.12-.123.237-.243.363-.352 2.256-1.939 5.878-.756 6.532 2.137a4.871 4.871 0 0 1-.627 3.738z" fill="#F3003B"/></symbol><symbol id="wine_anim" viewBox="0 0 40 80"><path fill-rule="evenodd" clip-rule="evenodd" d="M1.719 0C.856 0 .156.7.156 1.563v27.5h.017c.114 2.32.824 4.604 2.083 6.583 2.6 4.092 8.84 9.208 13.164 12.477.502.38 1.382 1.013 2.236 1.623v22.827L6.98 77.888c-1.034.515-.668 2.073.487 2.073h25.068c1.155 0 1.521-1.558.487-2.073l-10.677-5.315V49.746c.854-.61 1.734-1.244 2.236-1.623 4.324-3.269 10.564-8.385 13.164-12.477a13.529 13.529 0 0 0 2.083-6.584h.017v-27.5C39.844.7 39.144 0 38.28 0H1.72zM34.67 32.32c-2.15 3.374-7.308 7.592-10.883 10.286-.996.75-3.787 2.706-3.787 2.706s-2.79-1.955-3.787-2.706C12.638 39.912 7.48 35.694 5.33 32.32a11.133 11.133 0 0 1-1.433-8.546c1.495-6.612 9.773-9.315 14.93-4.883.29.247.557.522.831.804.112.115.226.231.342.347.116-.116.23-.232.342-.347.274-.282.541-.557.831-.804 5.157-4.432 13.435-1.73 14.93 4.883.7 2.903.176 6.026-1.433 8.546z" fill="url(#a)"/><path d="M23.787 42.606c3.575-2.694 8.734-6.912 10.883-10.285a11.134 11.134 0 0 0 1.433-8.546c-1.495-6.612-9.773-9.315-14.93-4.883-.29.247-.557.522-.831.804-.112.115-.226.231-.342.347-.116-.116-.23-.232-.342-.347a12.567 12.567 0 0 0-.831-.804c-5.157-4.432-13.435-1.73-14.93 4.883a11.133 11.133 0 0 0 1.433 8.546c2.15 3.373 7.308 7.59 10.883 10.285.996.75 3.787 2.706 3.787 2.706s2.79-1.955 3.787-2.706z" fill="url(#b)"/></symbol><symbol id="z" viewBox="0 0 15 18"><path d="M.699 14.616L8.424 3.21l5.18-.223-7.726 11.406-5.18.223zm.127 2.973L.7 14.616l2.538-.734 10.623-.456.154 3.596-13.188.567zM.682 4.167L.527.57 13.476.014l.127 2.973-2.563.735-10.358.445z" fill="#E30137"/></symbol><symbol id="zz" viewBox="0 0 16 20"><path d="M.622 14.549l9.76-9.722 5.126.77-9.76 9.722-5.126-.77zM.18 17.492l.442-2.943 2.632-.236 10.514 1.58-.535 3.56L.18 17.491zM2.6 4.289l.534-3.56L15.95 2.653l-.442 2.943-2.655.233-10.254-1.54z" fill="#E30137"/></symbol></svg>